# This file uses centimeters as units for non-parametric coordinates.

mtllib lefthand2.mtl
g default
v 94.606068 233.449028 -87.458179
v 97.518066 231.840250 -86.728897
v 100.569543 232.416091 -85.925653
v 103.119430 234.820237 -85.000568
v 104.123867 238.111599 -84.358834
v 100.645556 242.464397 -84.777092
v 103.219936 241.059085 -84.239742
v 53.520518 228.995626 -46.861000
v 53.327210 228.211417 -48.776435
v 53.871089 227.101612 -49.687635
v 54.798827 225.998821 -49.969236
v 55.939226 225.429952 -48.753023
v 56.762674 225.547955 -47.047169
v 56.894570 226.383694 -45.345356
v 56.406335 227.535089 -44.257744
v 54.246466 229.164946 -45.214769
v 55.455849 228.564403 -44.191265
v 66.364476 232.577646 -59.916404
v 65.811746 230.742779 -61.192651
v 66.238183 228.500600 -61.519806
v 67.480132 226.711802 -60.772311
v 69.050961 226.061190 -59.253081
v 70.344381 226.794064 -57.553268
v 70.874969 228.626844 -56.310727
v 70.450107 230.860637 -55.984795
v 67.673569 233.303298 -58.196368
v 69.231335 232.646259 -56.699348
v 80.739228 236.515214 -71.933088
v 80.262451 234.371141 -74.128037
v 80.861706 231.431670 -74.946856
v 82.306984 228.825230 -74.075248
v 84.033983 227.553715 -71.871341
v 85.377150 228.101191 -69.193333
v 85.832167 230.250808 -67.048009
v 85.235129 233.179271 -66.232252
v 82.098423 237.047988 -69.226577
v 83.813042 235.773303 -67.056158
v 89.977226 238.147451 -80.891183
v 89.355102 235.801422 -83.136210
v 90.248299 232.821650 -84.391361
v 92.368559 230.397455 -84.139511
v 94.904393 229.473781 -82.486525
v 96.825895 230.357668 -80.112068
v 97.395325 232.690277 -77.921673
v 96.436701 235.601671 -76.715740
v 91.873980 238.977289 -78.526554
v 94.337648 238.004429 -76.937643
v 105.550965 244.513154 -90.468569
v 106.438661 242.258537 -91.538575
v 107.438704 236.656858 -93.082529
v 106.343926 233.579534 -92.850292
v 104.281947 231.604406 -91.757133
v 102.002732 231.436178 -90.278773
v 99.012479 234.057572 -91.261482
v 102.904007 244.122827 -87.499930
v 105.280164 244.330977 -93.861856
v 103.410733 241.795382 -95.839329
v 101.018963 239.204210 -95.790511
v 98.429911 237.134262 -94.198216
v 96.197720 236.482676 -92.001684
v 94.133889 236.839564 -88.318423
v 95.594300 239.233889 -86.974246
v 98.327568 241.826386 -86.154182
v 103.272835 247.922105 -88.761981
v 103.616583 248.718798 -91.733246
v 101.912693 248.894855 -94.441032
v 99.176875 248.618487 -95.872501
v 96.569749 247.821801 -95.459864
v 94.987672 247.074757 -93.399458
v 94.223325 246.248496 -90.685407
v 94.840995 245.552563 -88.289806
v 100.537325 246.628493 -86.922249
v 97.271480 245.782009 -86.871364
v 53.735804 201.691525 -50.623774
v 53.730220 201.449127 -50.448412
v 53.089005 201.526678 -50.897600
vt 0.979086 0.789993
vt 0.008398 0.237431
vt 0.858297 0.786509
vt 0.823412 0.980626
vt 0.922439 0.952877
vt 0.765676 0.877310
vt 0.957524 0.871502
vt 0.039711 0.900098
vt 0.900325 0.926425
vt 0.694210 0.775775
vt 0.845510 0.996656
vt 0.752455 0.921601
vt 0.893252 0.879269
vt 0.743536 0.874434
vt 0.756588 0.973917
vt 0.718565 0.756719
vt 0.968044 0.796125
vt 0.014796 0.229917
vt 0.915382 0.955141
vt 0.861487 0.779671
vt 0.037375 0.899703
vt 0.980828 0.803222
vt 0.020291 0.242718
vt 0.874317 0.799509
vt 0.965655 0.870696
vt 0.039562 0.899478
vt 0.758791 0.837281
vt 0.743536 0.771532
vt 0.954565 0.825893
vt 0.693650 0.767315
vt 0.850166 0.989420
vt 0.961650 0.924175
vt 0.763887 0.924778
vt 0.901095 0.881838
vt 0.981051 0.976193
vt 0.778877 0.955092
vt 0.752991 0.972411
vt 0.912954 0.938093
vt 0.873691 0.777054
vt 0.712527 0.938986
vt 0.974556 0.800463
vt 0.842129 0.973849
vt 0.684769 0.752716
vt 0.873021 0.792755
vt 0.025873 0.249045
vt 0.773077 0.837622
vt 0.885562 0.783211
vt 0.750358 0.834737
vt 0.740137 0.779761
vt 0.787762 0.905962
vt 0.912427 0.825171
vt 0.967851 0.924528
vt 0.758347 0.874488
vt 0.977100 0.979068
vt 0.967898 0.980004
vt 0.759708 0.976320
vt 0.850166 0.813671
vt 0.819729 0.952038
vt 0.690565 0.746296
vt 0.696211 0.734215
vt 0.766059 0.836105
vt 0.976840 0.831618
vt 0.891926 0.789876
vt 0.960223 0.829319
vt 0.765676 0.842725
vt 0.782932 0.909171
vt 0.772250 0.865001
vt 0.749896 0.873390
vt 0.785515 0.950774
vt 0.925024 0.777240
vt 0.972466 0.980504
vt 0.716029 0.779966
vt 0.899365 0.946074
vt 0.839144 1.000000
vt 0.826266 0.951762
vt 0.827649 0.981064
vt 0.925024 0.961195
vt 0.704280 0.736926
vt 0.006832 0.227168
vt 0.908822 0.925025
vt 0.713055 0.948419
vt 0.968711 0.831508
vt 0.900477 0.824371
vt 0.747226 0.923166
vt 0.765676 0.863786
vt 0.973469 0.868797
vt 0.782289 0.953444
vt 0.976320 0.923965
vt 0.776591 0.910174
vt 0.906162 0.941278
vt 0.029998 0.232398
vt 0.866109 0.809627
vt 0.907404 0.957714
vt 0.834441 0.978646
vt 0.834846 0.952259
vt 0.781443 0.834737
vt 0.914123 0.922121
vt 0.882536 0.775011
vt 0.704277 0.948419
vt 0.697326 0.752389
vt 0.980000 0.775011
vt 0.906310 0.824950
vt 0.908890 0.883411
vt 0.787762 0.859825
vt 0.915496 0.775011
vt 0.750278 0.972260
vt 0.973468 0.924446
vt 0.771173 0.908587
vt 0.719095 0.764748
vt 0.963942 0.794622
vt 0.858216 0.810893
vt 0.697430 0.781356
vt 0.907193 0.965526
vt 0.869900 0.786258
vt 0.705634 0.933942
vt 0.842191 0.953210
vt 0.688385 0.733114
vt 0.891926 0.925795
vt 0.733678 0.786096
vt 0.743582 0.836060
vt 0.981051 0.778413
vt 0.699935 0.746406
vt 0.000000 0.237403
vt 0.758814 0.922216
vt 0.780693 0.863487
vt 0.913617 0.883368
vt 0.920351 0.776806
vt 0.718126 0.773632
vt 0.023227 0.231734
vn 0.778171 -0.411053 0.474853
vn 0.562167 -0.786503 0.255696
vn 0.240994 -0.904869 -0.350904
vn 0.661888 -0.643783 -0.383990
vn 0.828016 0.032806 0.559744
vn 0.962124 -0.161865 -0.219355
vn 0.664058 0.430927 0.611007
vn 0.961972 0.251020 0.107697
vn 0.108578 0.874860 0.472050
vn 0.791175 0.447031 0.417378
vn 0.572280 0.379719 0.726849
vn 0.580556 -0.393293 0.712934
vn 0.552030 0.234643 0.800128
vn 0.561061 0.317943 0.764279
vn 0.616184 -0.352181 0.704475
vn -0.485552 0.824516 -0.290538
vn -0.679776 0.364545 -0.636405
vn -0.655540 0.537414 -0.530522
vn -0.432878 0.882074 -0.185910
vn 0.013830 -0.996418 -0.083424
vn 0.365389 -0.853374 0.371810
vn 0.380244 -0.843154 0.380140
vn 0.015706 -0.998507 -0.052309
vn 0.263855 0.771932 0.578361
vn -0.135907 0.977636 0.160490
vn -0.108914 0.974620 0.195583
vn 0.246355 0.807686 0.535680
vn -0.467108 0.783071 0.410622
vn -0.033704 -0.922260 -0.385098
vn -0.229150 -0.910761 -0.343518
vn -0.433486 -0.597921 -0.674226
vn -0.433337 -0.679997 -0.591459
vn -0.864961 -0.070261 -0.496897
vn -0.734650 -0.339970 -0.587120
vn -0.677672 0.348459 -0.647563
vn -0.640465 -0.266834 -0.720142
vn -0.633402 -0.261010 -0.728474
vn -0.467151 0.828019 -0.310088
vn -0.360120 -0.785589 -0.503154
vn -0.402526 -0.759632 -0.510815
vn -0.681816 -0.121358 -0.721387
vn 0.584302 0.225878 0.779468
vn 0.318888 0.743759 0.587480
vn 0.624229 -0.365697 0.690365
vn 0.042515 -0.993511 -0.105492
vn 0.422889 -0.833802 0.354878
vn -0.365009 -0.778017 -0.511329
vn -0.482147 0.829574 -0.281676
vn -0.690199 0.397884 -0.604412
vn 0.377806 0.680514 0.627824
vn -0.080880 0.971815 0.221438
vn -0.086193 0.982243 0.166639
vn 0.662219 0.147517 0.734646
vn 0.103212 -0.976195 -0.190766
vn 0.505236 -0.827485 0.244961
vn -0.330470 -0.764492 -0.553481
vn -0.658122 -0.228339 -0.717451
vn -0.862984 0.499646 -0.074913
vn 0.706602 -0.400568 0.583318
vn 0.399487 0.239994 -0.884767
vn 0.448166 0.075297 -0.890774
vn -0.030954 -0.218265 -0.975398
vn -0.081297 -0.013742 -0.996595
vn -0.186273 0.101202 0.977272
vn 0.306658 0.131006 0.942761
vn -0.489609 -0.153021 -0.858410
vn -0.412863 -0.388956 -0.823564
vn -0.797059 -0.164805 -0.580979
vn -0.965755 -0.092221 -0.242513
vn -0.750042 0.085223 0.655876
vn 0.809786 0.323562 0.489442
vn 0.788036 0.326606 -0.521850
vn 0.831630 0.440014 -0.338792
vn 0.441451 -0.532594 -0.722125
vn 0.441451 -0.532594 -0.722125
vn 0.441451 -0.532594 -0.722125
s 1
g body
usemtl CylinderFBXASC046001SG
f 4/128/1 3/72/2 52/112/3 51/10/4
f 5/109/5 4/128/1 51/10/4 50/30/6
f 7/16/7 5/109/5 50/30/6 49/100/8
f 6/41/9 7/17/7 49/101/8 48/121/10 55/1/11
f 24/12/12 25/124/13 15/15/14 14/37/15
f 18/107/16 19/88/17 9/35/18 8/54/19
f 22/102/20 23/83/21 13/105/22 12/127/23
f 27/32/24 26/52/25 16/71/26 17/55/27
f 6/41/9 55/1/11 63/22/28
f 3/73/2 2/90/29 53/93/30 52/113/3
f 2/90/29 1/38/31 54/19/32 53/93/30
f 1/39/31 61/114/33 60/3/34 54/20/32
f 29/67/35 30/125/36 20/66/37 19/89/17
f 28/85/38 29/67/35 19/89/17 18/108/16
f 20/66/37 21/50/39 11/69/40 10/87/41
f 35/53/42 37/6/43 27/33/24 25/124/13
f 34/68/44 35/53/42 25/124/13 24/12/12
f 32/34/45 33/13/46 23/83/21 22/102/20
f 31/103/47 32/34/45 22/102/20 21/51/39
f 26/52/25 18/107/16 8/54/19 16/71/26
f 19/89/17 20/66/37 10/87/41 9/36/18
f 25/124/13 27/33/24 17/56/27 15/15/14
f 23/84/21 24/12/12 14/37/15 13/106/22
f 21/51/39 22/102/20 12/127/23 11/70/40
f 38/61/48 39/46/49 29/67/35 28/85/38
f 33/14/46 34/68/44 24/12/12 23/84/21
f 47/64/50 46/82/51 36/25/52 37/7/43
f 45/27/53 47/65/50 37/6/43 35/53/42
f 36/25/52 28/86/38 18/107/16 26/52/25
f 30/125/36 31/104/47 21/50/39 20/66/37
f 42/9/54 43/118/55 33/13/46 32/34/45
f 41/80/56 42/9/54 32/34/45 31/103/47
f 37/7/43 36/25/52 26/52/25 27/32/24
f 39/46/49 40/96/57 30/125/36 29/67/35
f 40/97/57 41/80/56 31/103/47 30/126/36
f 40/98/57 39/47/49 62/44/58 61/114/33
f 41/81/56 40/99/57 61/115/33 1/40/31
f 44/48/59 45/27/53 35/53/42 34/68/44
f 46/82/51 38/62/48 28/86/38 36/25/52
f 44/49/59 43/119/55 3/72/2 4/128/1
f 45/28/53 44/49/59 4/128/1 5/109/5
f 43/120/55 44/48/59 34/68/44 33/14/46
f 46/82/51 47/64/50 7/17/7 6/41/9
f 38/62/48 46/82/51 6/41/9 63/22/28
f 66/116/60 57/42/61 58/94/62 67/95/63
f 73/129/64 63/23/28 55/2/11 72/18/65
f 68/75/66 59/76/67 60/4/34 69/58/68
f 70/111/69 61/114/33 62/44/58 71/92/70
f 64/78/71 48/122/10 56/59/72 65/60/73
f 67/95/63 58/94/62 59/76/67 68/75/66
f 72/18/65 55/2/11 48/123/10 64/79/71
f 71/91/70 62/45/58 63/23/28 73/129/64
f 65/60/73 56/59/72 57/43/61 66/117/60
f 69/57/68 60/3/34 61/114/33 70/111/69
f 47/64/50 45/29/53 5/110/5 7/17/7
f 48/122/10 49/100/8 56/59/72
f 57/42/61 50/31/6 51/11/4 58/94/62
f 42/9/54 41/80/56 1/38/31 2/90/29
f 39/47/49 38/63/48 63/24/28 62/44/58
f 59/77/67 52/113/3 53/93/30 54/19/32 60/5/34
f 43/118/55 42/9/54 2/90/29 3/73/2
f 58/94/62 51/11/4 52/74/3 59/76/67
f 56/59/72 49/100/8 50/30/6 57/43/61
s off
f 76/21/74 74/26/75 75/8/76
