# This file uses centimeters as units for non-parametric coordinates.

mtllib leftleg4.mtl
g default
v 73.081274 57.415698 -113.687736
v 75.920992 57.198378 -113.141284
v 77.774292 56.859445 -111.001358
v 78.053525 56.528306 -108.060380
v 76.628835 56.331436 -105.378057
v 73.953366 56.344058 -103.964867
v 71.047208 56.561462 -104.419011
v 69.046703 56.900493 -106.610858
v 68.779703 57.231651 -109.677953
v 70.341253 57.428459 -112.384659
v 73.105773 48.812661 -114.610878
v 75.916520 49.004109 -114.134661
v 77.783846 48.917675 -112.059160
v 78.116307 48.586491 -109.149063
v 76.791703 48.137023 -106.432112
v 74.156445 47.740920 -104.915442
v 71.232394 47.549551 -105.239096
v 69.141212 47.635874 -107.341966
v 68.804528 47.967134 -110.428600
v 70.361628 48.416574 -113.224075
v 73.218867 27.870538 -77.790706
v 67.710383 28.147336 -79.642379
v 71.256093 26.736291 -81.359252
v 71.572929 28.407164 -78.994038
v 72.064248 25.422276 -86.775842
v 67.710220 26.051945 -84.147497
v 67.699016 27.631592 -82.778712
v 72.099076 28.502895 -83.682439
v 76.443096 26.348241 -87.816670
v 73.361973 26.073829 -86.447608
v 76.756546 32.227836 -102.217228
v 80.489213 32.661778 -103.807602
v 81.326259 33.669041 -102.923524
v 81.192299 35.231754 -101.404082
v 80.686257 36.756385 -99.822396
v 76.861708 36.865307 -97.264055
v 71.924763 36.170103 -95.870754
v 68.573474 35.266331 -96.032395
v 68.282555 33.742480 -97.527231
v 72.100162 32.611471 -99.799552
v 76.610981 25.893367 -93.337853
v 80.771703 25.914694 -95.044413
v 83.513617 26.743599 -95.320881
v 83.635636 27.685667 -94.088463
v 81.101414 28.405347 -91.807533
v 76.791688 28.453110 -89.473861
v 72.336942 27.772673 -88.015412
v 68.395464 26.776938 -88.007113
v 68.362355 25.993679 -89.218530
v 72.290565 25.902172 -91.151190
v 73.204851 27.553069 -84.622799
v 76.090888 28.334685 -85.646388
v 77.921936 28.054321 -86.951723
v 80.952580 28.192384 -88.435863
v 80.998953 26.269116 -90.244854
v 78.089347 26.113585 -89.057713
v 81.329109 29.179173 -87.628786
v 84.405096 28.223514 -89.944592
v 84.481190 26.634901 -91.192740
v 81.521177 25.681009 -90.644296
v 71.864114 34.165059 -118.917978
v 72.315485 37.262168 -120.751261
v 75.864898 38.880678 -120.577674
v 76.200755 35.356578 -119.020189
v 78.337472 41.492084 -114.540163
v 79.892100 37.547674 -112.454100
v 78.677259 44.035856 -110.654101
v 80.913183 39.740876 -109.014407
v 76.857456 45.504088 -106.895911
v 79.400130 41.441138 -104.896610
v 73.644517 45.462411 -104.624775
v 75.874417 41.776866 -101.827539
v 70.182068 44.010458 -104.633864
v 71.480786 41.053460 -101.445420
v 67.642550 41.556940 -106.978414
v 67.955212 38.913918 -103.667421
v 67.006594 38.975970 -114.451776
v 66.736645 36.510355 -111.008272
v 68.921334 37.307348 -118.437780
v 68.412721 34.656806 -115.327137
v 73.322786 26.702507 -79.691606
v 67.136038 26.926408 -77.892179
v 75.831863 26.822683 -80.398344
v 75.656110 28.262663 -78.011390
v 78.146332 26.999746 -82.213994
v 78.045886 28.767100 -79.235754
v 80.967132 28.785383 -80.015437
v 82.829691 25.767541 -83.076547
v 82.160237 27.885053 -82.487487
v 83.777438 27.023359 -84.553058
v 83.772978 27.562745 -83.665960
v 81.039313 27.185794 -82.445873
v 80.610321 26.533829 -71.976785
v 80.256323 27.778477 -69.999547
v 83.626969 25.556382 -76.289412
v 82.940541 27.575093 -75.779276
v 75.140960 27.507095 -68.097897
v 72.656952 27.114398 -68.104111
v 73.030422 25.844327 -70.014593
v 75.552620 25.937210 -70.512861
v 70.936966 28.301432 -70.309135
v 68.141831 27.703576 -73.587375
v 78.309614 26.214940 -71.944632
v 70.506975 25.974096 -73.677828
v 67.593815 25.642108 -73.030737
v 77.863267 27.753398 -69.537610
v 84.604468 27.238155 -76.886874
v 84.689724 26.686994 -77.781758
v 73.943380 27.310745 -68.103562
v 74.336072 25.890751 -70.264235
v 75.317741 26.722142 -69.304339
v 72.839225 26.479391 -69.058270
v 74.117868 26.600761 -69.182806
v 69.547346 28.000577 -71.868162
v 70.735890 27.134138 -71.155183
v 67.870540 26.672110 -73.311261
v 69.062959 25.804818 -73.645663
v 69.312383 26.901192 -72.435775
v 80.443026 27.156153 -70.988266
v 79.467260 26.374383 -71.964283
v 79.067537 27.765923 -69.769950
v 78.101420 26.984176 -70.740760
v 79.279610 27.070155 -70.867036
v 83.288665 26.565811 -76.037153
v 83.757483 27.406616 -76.325148
v 84.649040 26.962549 -77.334716
v 84.159897 26.121851 -77.032490
v 83.959484 26.764226 -76.678828
vt 0.601572 0.918664
vt 0.578427 0.805159
vt 0.713109 0.939027
vt 0.794736 0.839283
vt 0.598936 0.876487
vt 0.560952 0.798824
vt 0.620633 0.920096
vt 0.597659 0.915306
vt 0.558542 0.933942
vt 0.717441 0.940399
vt 0.305452 0.979447
vt 0.115860 0.820347
vt 0.781344 0.041847
vt 0.321262 0.872782
vt 0.538254 0.967963
vt 0.634956 0.925055
vt 0.547362 0.798529
vt 0.493468 0.764062
vt 0.643769 0.901356
vt 0.544367 0.933942
vt 0.531755 0.998448
vt 0.640588 0.888182
vt 0.580081 0.805159
vt 0.623102 0.933942
vt 0.624849 0.955554
vt 0.618767 0.883920
vt 0.302061 0.070308
vt 0.676254 0.921297
vt 0.509196 0.785100
vt 0.778819 0.069752
vt 0.309891 0.068773
vt 0.587699 0.903165
vt 0.287626 0.953364
vt 0.298589 0.095592
vt 0.479554 0.712032
vt 0.526868 0.936943
vt 0.581788 0.892637
vt 0.348065 0.862175
vt 0.713055 0.937112
vt 0.580774 0.803613
vt 0.791993 0.835717
vt 0.882766 0.012342
vt 0.338000 0.886096
vt 0.564875 0.953800
vt 0.572271 0.865252
vt 0.302385 0.825140
vt 0.579752 0.883541
vt 0.119400 0.809037
vt 0.295522 0.992476
vt 0.709509 0.890698
vt 0.779344 0.029401
vt 0.308333 0.029006
vt 0.544367 0.960709
vt 0.617165 0.902981
vt 0.296729 0.036155
vt 0.487415 0.751071
vt 0.539655 0.790480
vt 0.340422 0.927828
vt 0.638340 0.877051
vt 0.844691 0.010900
vt 0.627012 0.872321
vt 0.854791 0.006805
vt 0.491382 0.737794
vt 0.674514 0.907236
vt 0.785321 0.068039
vt 0.584890 0.902843
vt 0.715262 0.937620
vt 0.306532 0.095239
vt 0.864585 0.018060
vt 0.277978 0.875430
vt 0.584918 0.888564
vt 0.584776 0.906197
vt 0.811968 0.610789
vt 0.616172 0.911339
vt 0.816426 0.641812
vt 0.524146 0.933942
vt 0.315150 0.825928
vt 0.578619 0.892274
vt 0.287675 0.977457
vt 0.127899 0.821547
vt 0.808799 0.046222
vt 0.771836 0.037526
vt 0.307128 0.035918
vt 0.633496 0.903471
vt 0.542800 0.944252
vt 0.717552 0.901472
vt 0.297023 0.027640
vt 0.502860 0.760060
vt 0.320740 0.990162
vt 0.645981 0.922012
vt 0.537198 0.794181
vt 0.522012 0.982483
vt 0.309358 0.897437
vt 0.797419 0.093513
vt 0.630584 0.885270
vt 0.622107 0.944043
vt 0.483098 0.736559
vt 0.514579 0.775515
vt 0.336745 0.970498
vt 0.539280 0.992420
vt 0.585004 0.899489
vt 0.494514 0.714658
vt 0.624974 0.972289
vt 0.602021 0.880482
vt 0.794732 0.843831
vt 0.575834 0.837279
vt 0.300723 0.866818
vt 0.582052 0.888236
vt 0.308720 1.001550
vt 0.791621 0.839964
vt 0.344705 0.890350
vt 0.563236 0.797449
vt 0.584957 0.893000
vt 0.529590 0.939943
vt 0.128744 0.812800
vt 0.800772 0.055885
vt 0.868828 0.013186
vt 0.611548 0.871466
vt 0.634897 0.912122
vt 0.815227 0.660616
vt 0.471974 0.775925
vt 0.285291 0.032420
vt 0.715824 0.913876
vt 0.109086 0.809980
vt 0.496645 0.746807
vt 0.310691 0.913177
vt 0.531755 0.939582
vt 0.519048 0.992685
vt 0.571711 0.819182
vt 0.296427 0.892887
vt 0.804194 0.092361
vt 0.126257 0.776238
vt 0.291302 0.890857
vt 0.633765 0.948344
vt 0.117694 0.802550
vt 0.511752 0.781245
vt 0.674305 0.925176
vt 0.344715 0.860044
vt 0.715248 0.935527
vt 0.486230 0.713423
vt 0.541926 0.989507
vt 0.588110 0.899845
vt 0.582316 0.883835
vt 0.574549 0.862944
vt 0.582263 0.905909
vt 0.333902 0.834758
vt 0.809822 0.608398
vt 0.584879 0.884129
vt 0.576826 0.860636
vt 0.274445 0.984682
vt 0.800749 0.040728
vt 0.613210 0.887990
vt 0.580081 0.832703
vt 0.348066 0.912278
vt 0.550082 0.794336
vt 0.287510 0.041973
vt 0.467671 0.765411
vt 0.671619 0.893156
vt 0.328920 0.921200
vt 0.806042 0.666720
vt 0.567109 0.978765
vt 0.808186 0.657453
vt 0.329052 0.907220
vt 0.314492 0.094896
vt 0.782540 0.095813
vt 0.273781 0.887117
vt 0.857476 0.010783
vt 0.498010 0.739136
vt 0.109533 0.802178
vt 0.307511 0.959386
vt 0.561355 0.934187
vt 0.717441 0.937171
vt 0.118623 0.777207
vt 0.536633 0.995333
vt 0.324189 0.832464
vt 0.581899 0.899133
vt 0.628738 0.973939
vt 0.791249 0.844211
vt 0.558948 0.953337
vt 0.616842 0.916675
vt 0.814114 0.613180
vt 0.587289 0.906485
vt 0.282866 0.848952
vt 0.882063 0.015481
vt 0.789249 0.836697
vt 0.792419 0.048927
vt 0.526698 0.962114
vt 0.313488 0.867606
vt 0.335438 0.905029
vt 0.567109 0.966961
vt 0.483091 0.770162
vt 0.817063 0.026560
vt 0.669531 0.881614
vt 0.277349 0.905086
vt 0.847091 0.014330
vt 0.316824 0.901842
vt 0.534203 0.948020
vt 0.789147 0.094831
vt 0.629477 0.888552
vt 0.579176 0.816261
vt 0.793592 0.066720
vt 0.516598 0.770093
vt 0.330949 0.967990
vt 0.599615 0.916985
vt 0.715275 0.939713
vt 0.501242 0.715266
vt 0.110500 0.778035
vt 0.308767 0.825534
vt 0.579185 0.887907
vt 0.794736 0.834737
vt 0.883469 0.009204
vt 0.595849 0.872492
vt 0.288017 0.849740
vt 0.788506 0.840645
vt 0.333517 0.875685
vt 0.811431 0.635857
vt 0.341365 0.857912
vt 0.564167 0.934431
vt 0.717441 0.933942
vt 0.632506 0.975590
vt 0.293168 0.850529
vt 0.787762 0.844592
vt 0.789712 0.034228
vt 0.699151 0.884448
vt 0.613268 0.896871
vt 0.531755 0.968046
vt 0.555230 0.970978
vt 0.634841 0.916468
vt 0.476299 0.758209
vt 0.645873 0.914239
vt 0.816426 0.671468
vt 0.556454 0.982453
vt 0.292725 0.906891
vt 0.569589 0.809244
vt 0.633765 0.937852
vt 0.629704 0.960658
vt 0.293113 0.873018
vt 0.294248 0.071853
vt 0.476322 0.735902
vt 0.631771 0.897941
vt 0.531217 0.986588
vt 0.800473 0.066300
vt 0.125367 0.802779
vt 0.582081 0.902521
vt 0.329046 0.833611
vt 0.274726 0.952446
vt 0.819863 0.032083
vt 0.713082 0.938069
vt 0.579600 0.804386
vn -0.476079 -0.089599 0.874826
vn -0.917933 -0.042330 0.394471
vn -0.944722 0.097809 0.312945
vn -0.485830 0.016875 0.873890
vn 0.256154 0.704640 0.661716
vn -0.296572 0.689976 0.660286
vn -0.095220 0.712952 0.694718
vn 0.265887 0.681673 0.681635
vn 0.980747 -0.016656 0.194571
vn 0.707658 -0.074806 0.702584
vn 0.732713 -0.070124 0.676915
vn 0.985875 0.012021 0.167051
vn -0.169390 0.104092 -0.980037
vn 0.475600 0.104170 -0.873472
vn 0.487861 0.310978 -0.815649
vn -0.248574 0.351921 -0.902420
vn -0.977773 0.014084 -0.209193
vn -0.966371 0.170210 -0.192755
vn 0.168290 -0.103027 0.980339
vn 0.207076 -0.070031 0.975815
vn 0.918419 0.052815 -0.392069
vn 0.906840 0.152745 -0.392823
vn -0.700759 0.065796 -0.710358
vn -0.684947 0.277046 -0.673865
vn 0.185563 0.517018 0.835619
vn 0.768932 0.412422 0.488519
vn 0.923494 -0.185115 -0.335992
vn 0.970471 0.227476 -0.080257
vn 0.957413 0.273510 0.092486
vn 0.903787 -0.285800 -0.318571
vn -0.206861 -0.878842 -0.429936
vn -0.000625 -0.886000 -0.463685
vn 0.495513 -0.865914 0.068261
vn -0.256556 -0.951998 0.166969
vn -0.902614 0.309603 0.299055
vn -0.668096 0.542205 0.509569
vn 0.745215 0.568178 0.349040
vn 0.648014 0.584830 0.487906
vn 0.448927 0.275299 -0.850103
vn -0.287823 0.201809 -0.936179
vn -0.827421 -0.561166 -0.021611
vn -0.838834 -0.509730 -0.191137
vn -0.386665 -0.910212 -0.148340
vn -0.066937 -0.955660 -0.286765
vn -0.119550 -0.942807 -0.311162
vn -0.368189 -0.880509 -0.298563
vn 0.358224 -0.849062 -0.388290
vn 0.775932 -0.497078 -0.388385
vn 0.875396 0.193642 -0.442927
vn -0.696565 0.176137 -0.695537
vn -0.943384 0.176185 -0.281043
vn -0.549126 0.434942 0.713643
vn 0.954459 0.293913 -0.051212
vn 0.481298 -0.772830 -0.413625
vn -0.957203 0.216974 0.191532
vn -0.633056 -0.705191 -0.319290
vn -0.284044 -0.852893 -0.438054
vn 0.372549 -0.926290 0.056513
vn -0.260576 -0.960570 0.096980
vn -0.031034 0.801643 0.596997
vn 0.229014 0.697865 0.678629
vn 0.878092 0.469829 0.090636
vn -0.592357 0.730308 0.340239
vn 0.420570 0.756575 0.500715
vn 0.583685 0.811979 -0.001438
vn -0.751486 0.630931 0.192860
vn 0.588120 0.807672 -0.042194
vn -0.211518 -0.970484 0.115848
vn 0.518890 -0.849622 0.094316
vn 0.595207 -0.802638 0.038737
vn -0.338148 -0.940636 -0.029336
vn -0.589523 0.807375 0.024653
vn -0.449604 -0.890418 0.070798
vn -0.543162 0.839367 0.020920
vn -0.593369 0.804663 0.020750
vn 0.494357 0.868938 0.023593
vn 0.674561 -0.734711 -0.071888
vn -0.853940 0.481036 0.198470
vn 0.539316 0.837893 0.084107
vn 0.466457 0.882347 0.062297
vn -0.405008 -0.914152 0.017163
vn -0.466263 0.874839 -0.131357
vn 0.364209 0.928698 -0.069803
vn -0.642013 -0.766089 -0.030446
vn -0.976662 -0.212147 0.033540
vn -0.354689 0.925421 0.133387
vn -0.924171 0.344290 0.165449
vn 0.246558 0.966925 0.065308
vn 0.325672 0.944654 0.039581
vn 0.722099 -0.691712 -0.010342
vn 0.028800 -0.998410 -0.048463
vn -0.629030 -0.775062 -0.059995
vn 0.451926 0.890540 0.051977
vn 0.135088 0.983316 0.121824
vn 0.993980 0.031106 0.105052
vn 0.581247 -0.813411 0.022690
vn 0.648588 0.758746 0.060316
vn 0.455054 -0.879408 0.139881
vn -0.480356 -0.876714 -0.025106
vn -0.405158 0.914096 -0.016610
vn -0.608890 0.793239 0.005021
vn -0.513677 -0.854744 0.074483
vn 0.752937 -0.657967 0.012827
vn 0.118629 -0.828516 0.547256
vn 0.994258 -0.015309 0.105909
vn 0.249315 0.957238 0.146758
vn 0.023822 0.989673 0.141349
vn 0.705095 -0.164626 0.689739
vn 0.979426 0.199850 -0.028002
vn 0.135267 -0.816619 0.561102
vn -0.978255 -0.207006 0.012855
vn -0.392754 -0.535151 0.747902
vn -0.896539 0.341453 0.282183
vn -0.419208 -0.906110 -0.056821
vn -0.082143 -0.992782 -0.087386
vn 0.681777 0.713934 0.159619
vn 0.924092 -0.348115 0.157699
vn 0.636672 -0.771118 -0.005158
vn -0.357039 0.929473 0.092750
vn -0.205472 0.973927 0.096167
vn 0.864441 -0.489561 -0.114329
vn 0.709669 -0.700900 -0.071474
vn -0.726980 -0.679772 0.097004
vn -0.393123 0.914852 0.092197
vn 0.724777 -0.688907 0.010242
vn -0.927348 -0.346080 0.142315
vn 0.095564 -0.994790 -0.035493
vn -0.153386 0.981902 0.111094
s 1
g body
usemtl CylinderFBXASC046001SG
f 7/131/1 8/94/2 18/201/3 17/242/4
f 72/11/5 74/79/6 37/33/7 36/170/8
f 4/102/9 5/206/10 15/168/11 14/63/12
f 1/68/13 2/34/14 12/238/15 11/27/16
f 8/94/2 9/198/17 19/65/18 18/201/3
f 5/207/10 6/173/19 16/135/20 15/169/11
f 2/35/14 3/140/21 13/97/22 12/239/15
f 9/198/17 10/165/23 20/30/24 19/65/18
f 6/173/19 7/132/1 17/243/4 16/135/20
f 3/140/21 4/102/9 14/63/12 13/97/22
f 10/164/23 1/68/13 11/27/16 20/31/24
f 15/169/11 16/135/20 71/48/25 69/124/26
f 66/191/27 68/18/28 34/98/29 33/136/30
f 41/19/31 42/230/32 55/119/33 56/84/34
f 74/79/6 76/150/35 38/246/36 37/33/7
f 68/18/28 70/88/37 35/202/38 34/98/29
f 11/27/16 12/238/15 63/156/39 62/55/40
f 76/151/35 78/223/41 39/192/42 38/247/36
f 70/89/37 72/11/5 36/170/8 35/203/38
f 80/50/43 61/86/44 31/64/45 40/158/46
f 78/224/41 80/50/43 40/158/46 39/193/42
f 32/28/47 33/137/30 43/90/48 42/230/32
f 12/239/15 13/97/22 65/229/49 63/157/39
f 19/65/18 20/30/24 79/82/50 77/13/51
f 16/135/20 17/243/4 73/115/52 71/48/25
f 13/97/22 14/63/12 67/56/53 65/229/49
f 64/121/54 66/191/27 33/136/30 32/29/47
f 17/242/4 18/201/3 75/186/55 73/116/52
f 14/63/12 15/168/11 69/125/26 67/56/53
f 20/31/24 11/27/16 62/55/40 79/83/50
f 18/201/3 19/65/18 77/13/51 75/186/55
f 49/59/56 50/22/57 25/95/58 26/61/59
f 39/193/42 40/158/46 50/22/57 49/59/56
f 36/170/8 37/33/7 47/233/60 46/126/61
f 33/136/30 34/98/29 44/57/62 43/91/48
f 40/158/46 31/64/45 41/19/31 50/22/57
f 37/33/7 38/246/36 48/194/63 47/233/60
f 34/99/29 35/203/38 45/159/64 44/58/62
f 31/64/45 32/28/47 42/230/32 41/19/31
f 38/247/36 39/192/42 49/60/56 48/195/63
f 35/203/38 36/170/8 46/126/61 45/159/64
f 42/231/32 45/160/64 54/162/65 55/120/33
f 44/58/62 45/159/64 57/189/66 58/154/67
f 30/199/68 29/240/69 83/225/70 81/152/71
f 47/234/60 50/23/57 30/200/68 51/129/72
f 45/161/64 42/232/32 60/227/73 57/190/66
f 45/159/64 46/126/61 53/196/74 54/163/65
f 46/127/61 41/20/31 56/85/34 53/197/74
f 54/163/65 53/196/74 86/14/75 87/215/76
f 42/230/32 43/90/48 59/16/77 60/228/73
f 43/91/48 44/57/62 58/155/67 59/17/77
f 62/55/40 63/156/39 64/122/54 61/87/44
f 63/157/39 65/229/49 66/191/27 64/121/54
f 65/229/49 67/56/53 68/18/28 66/191/27
f 67/56/53 69/125/26 70/88/37 68/18/28
f 69/109/26 71/49/25 72/11/5 70/89/37
f 71/48/25 73/115/52 74/80/6 72/12/5
f 73/116/52 75/186/55 76/151/35 74/81/6
f 75/186/55 77/13/51 78/223/41 76/151/35
f 77/13/51 79/82/50 80/51/43 78/223/41
f 79/83/50 62/55/40 61/87/44 80/52/43
f 61/86/44 64/123/54 32/28/47 31/64/45
f 58/154/67 57/189/66 89/43/78 91/111/79
f 41/21/31 46/128/61 52/92/80 29/241/69
f 50/22/57 41/19/31 29/240/69 30/199/68
f 46/126/61 47/233/60 51/130/72 52/93/80
f 53/197/74 56/85/34 85/53/81 86/15/75
f 47/233/60 48/194/63 27/166/82 28/133/83
f 50/24/57 47/235/60 28/134/83 25/96/58
f 48/195/63 49/60/56 26/62/59 27/167/82
f 86/15/75 85/53/81 103/141/84 122/100/85 106/174/86
f 91/111/79 89/43/78 96/217/87 125/138/88 107/38/89
f 81/152/71 83/225/70 100/113/90 110/71/91 99/148/92
f 83/226/70 84/187/93 97/76/94 111/36/95 100/114/90
f 56/84/34 55/119/33 92/74/96 85/54/81
f 29/241/69 52/92/80 84/187/93 83/226/70
f 25/96/58 28/134/83 24/236/97 23/25/98
f 55/120/33 54/162/65 87/216/76 92/75/96
f 27/167/82 26/62/59 82/117/99 22/69/100
f 51/129/72 30/200/68 81/153/71 21/106/101
f 57/190/66 60/227/73 88/179/102 89/44/78
f 28/133/83 27/166/82 22/70/100 24/237/97
f 59/17/77 58/155/67 91/112/79 90/6/103
f 52/93/80 51/130/72 21/107/101 84/188/93
f 26/61/59 25/95/58 23/26/98 82/118/99
f 60/228/73 59/16/77 90/7/103 88/180/102
f 123/66/104 119/72/105 94/145/106 121/244/107
f 128/67/108 126/248/109 107/39/89 125/139/88
f 113/108/110 112/143/111 99/148/92 110/71/91
f 118/110/112 116/41/113 105/210/114 117/4/115
f 23/25/98 24/236/97 101/220/116 115/177/117 104/103/118
f 24/237/97 22/70/100 102/183/119 114/213/120 101/221/116
f 88/180/102 90/7/103 108/1/121 127/204/122 95/8/123
f 22/69/100 82/117/99 105/211/114 116/42/113 102/184/119
f 87/215/76 86/14/75 106/175/86 121/245/107 94/146/106
f 21/106/101 81/153/71 99/149/92 112/144/111 98/45/124
f 92/75/96 87/216/76 94/147/106 119/73/105 93/181/125
f 90/6/103 91/112/79 107/40/89 126/249/109 108/2/121
f 89/44/78 88/179/102 95/9/123 124/171/126 96/218/87
f 85/54/81 92/74/96 93/182/125 120/32/127 103/142/84
f 84/188/93 21/107/101 98/46/124 109/208/128 97/77/94
f 82/118/99 23/26/98 104/104/118 117/5/115 105/212/114
f 111/37/95 113/108/110 110/71/91 100/113/90
f 97/78/94 109/209/128 113/108/110 111/37/95
f 109/209/128 98/47/124 112/143/111 113/108/110
f 115/178/117 118/110/112 117/4/115 104/105/118
f 101/222/116 114/214/120 118/110/112 115/178/117
f 114/214/120 102/185/119 116/41/113 118/110/112
f 122/101/85 123/66/104 121/244/107 106/176/86
f 103/142/84 120/32/127 123/66/104 122/101/85
f 120/32/127 93/182/125 119/72/105 123/66/104
f 124/172/126 128/67/108 125/139/88 96/219/87
f 95/10/123 127/205/122 128/67/108 124/172/126
f 127/205/122 108/3/121 126/248/109 128/67/108
