# This file uses centimeters as units for non-parametric coordinates.

mtllib leftleg2.mtl
g default
v 76.122212 145.502444 -97.916246
v 80.240584 146.024002 -97.174772
v 82.942727 146.032596 -93.888912
v 83.193639 145.563076 -89.664190
v 80.951065 144.795491 -86.107625
v 77.146255 144.008982 -84.457238
v 73.152778 143.501362 -85.311290
v 70.512065 143.474328 -88.421258
v 70.192963 143.918963 -92.439471
v 72.300635 144.691462 -96.044023
v 77.369896 134.337653 -97.237103
v 81.108696 134.731242 -96.420226
v 84.069503 134.694764 -93.473982
v 84.872999 134.032796 -88.794275
v 81.784812 133.127439 -84.457780
v 78.020686 132.697556 -83.804030
v 74.015427 132.087397 -83.795981
v 71.812627 132.331105 -87.593828
v 71.819648 133.005159 -92.398045
v 73.823395 133.687196 -95.743198
v 79.104586 124.904727 -98.534970
v 82.855852 124.904128 -97.646462
v 85.354943 124.639007 -94.713985
v 85.623977 124.206862 -90.823049
v 83.389136 123.680241 -86.621543
v 79.635892 123.329655 -84.342580
v 75.886487 123.331169 -85.239411
v 73.564386 123.684397 -88.970924
v 73.483738 124.211167 -93.719962
v 75.529076 124.642859 -97.060526
v 79.205221 117.196364 -99.871883
v 82.591492 116.629982 -99.267368
v 84.837558 116.046560 -96.792631
v 85.139910 115.669815 -93.402236
v 83.345538 115.642654 -90.381299
v 80.138177 115.975495 -88.883941
v 76.761468 116.537745 -89.451160
v 74.524003 117.128159 -91.989198
v 74.234493 117.505245 -95.382936
v 76.016178 117.530906 -98.390027
vt 0.085795 0.582085
vt 0.549236 0.523007
vt 0.530105 0.545967
vt 0.842466 0.344264
vt 0.099676 0.553939
vt 0.308953 0.293116
vt 0.109578 0.521306
vt 0.863028 0.342355
vt 0.845278 0.284551
vt 0.520674 0.544556
vt 0.088974 0.553506
vt 0.557386 0.495330
vt 0.548659 0.458405
vt 0.819197 0.267940
vt 0.315851 0.271060
vt 0.107026 0.581407
vt 0.856189 0.283201
vt 0.095289 0.604421
vt 0.833265 0.347096
vt 0.331806 0.350733
vt 0.850974 0.309601
vt 0.320951 0.353555
vt 0.853598 0.342491
vt 0.827031 0.267389
vt 0.823537 0.288457
vt 0.319123 0.291871
vt 0.085909 0.606342
vt 0.538106 0.546096
vt 0.305831 0.323133
vt 0.524270 0.489591
vt 0.862090 0.308558
vt 0.110789 0.555019
vt 0.557861 0.460697
vt 0.087553 0.519065
vt 0.538096 0.521375
vt 0.832177 0.286666
vt 0.836456 0.265889
vt 0.315895 0.320732
vt 0.325922 0.318348
vt 0.829231 0.314685
vt 0.309838 0.356421
vt 0.527140 0.456127
vt 0.527289 0.519765
vt 0.513397 0.542403
vt 0.297274 0.269919
vt 0.104165 0.602337
vt 0.844016 0.263991
vt 0.546157 0.492671
vt 0.837794 0.312160
vt 0.098894 0.520284
vt 0.097160 0.581847
vt 0.306611 0.270478
vt 0.533102 0.490264
vt 0.298804 0.294373
vt 0.518662 0.518474
vt 0.536929 0.456661
vn 0.631385 0.144108 0.761962
vn 0.089256 0.103498 0.990617
vn 0.101410 0.012715 0.994763
vn 0.614122 0.053558 0.787391
vn -0.107131 0.011333 -0.994180
vn 0.503642 0.081455 -0.860064
vn 0.525502 0.169668 -0.833703
vn -0.069189 0.143511 -0.987227
vn 0.963857 0.140215 0.226537
vn 0.953483 0.099874 0.284421
vn -0.093574 -0.069366 -0.993193
vn 0.494958 -0.006892 -0.868890
vn 0.904127 0.074935 -0.420642
vn 0.916152 0.118887 -0.382795
vn -0.631051 -0.113148 -0.767445
vn -0.659011 -0.071751 -0.748703
vn -0.952194 -0.135407 -0.273845
vn -0.960282 -0.140753 -0.240930
vn -0.957146 -0.084979 0.276858
vn -0.945517 -0.145104 0.291449
vn -0.531179 0.033808 0.846585
vn -0.530181 -0.080739 0.844032
vn -0.928921 -0.254443 0.269007
vn -0.962086 -0.112820 -0.248320
vn -0.960564 -0.047587 -0.273958
vn -0.931413 -0.258684 0.256031
vn 0.145383 -0.278160 0.949469
vn 0.687094 -0.165562 0.707454
vn 0.921692 0.104729 -0.373519
vn -0.643256 0.036340 -0.764788
vn -0.507567 -0.333640 0.794393
vn 0.972156 -0.025868 0.232904
vn 0.181273 -0.488954 0.853267
vn 0.725169 -0.300008 0.619779
vn 0.917444 0.040381 -0.395810
vn 0.527778 0.146569 -0.836641
vn -0.617954 0.105134 -0.779153
vn -0.517206 -0.483233 0.706388
vn 0.976815 -0.119182 0.177845
vn -0.049862 0.171590 -0.983906
s 1
g body
usemtl CylinderFBXASC046001SG
f 5/34/1 6/50/2 16/5/3 15/11/4
f 11/38/5 12/29/6 22/54/7 21/6/8
f 4/13/9 5/33/1 15/12/4 14/48/10
f 1/22/11 2/41/12 12/29/6 11/38/5
f 3/56/13 4/13/9 14/48/10 13/53/14
f 2/42/12 3/56/13 13/53/14 12/30/6
f 10/20/15 1/22/11 11/38/5 20/39/16
f 9/4/17 10/19/15 20/40/16 19/49/18
f 8/23/19 9/4/17 19/49/18 18/21/20
f 7/8/21 8/23/19 18/21/20 17/31/22
f 6/50/2 7/7/21 17/32/22 16/5/3
f 28/9/23 29/36/24 39/24/25 38/37/26
f 18/21/20 19/49/18 29/36/24 28/9/23
f 15/11/4 16/5/3 26/51/27 25/1/28
f 12/30/6 13/53/14 23/43/29 22/55/7
f 19/49/18 20/40/16 30/25/30 29/36/24
f 16/5/3 17/32/22 27/16/31 26/51/27
f 13/53/14 14/48/10 24/35/32 23/43/29
f 20/39/16 11/38/5 21/6/8 30/26/30
f 17/31/22 18/21/20 28/9/23 27/17/31
f 14/48/10 15/12/4 25/2/28 24/35/32
f 25/1/28 26/51/27 36/18/33 35/27/34
f 22/55/7 23/43/29 33/10/35 32/44/36
f 29/36/24 30/25/30 40/14/37 39/24/25
f 26/51/27 27/16/31 37/46/38 36/18/33
f 23/43/29 24/35/32 34/3/39 33/10/35
f 30/26/30 21/6/8 31/52/40 40/15/37
f 27/17/31 28/9/23 38/37/26 37/47/38
f 24/35/32 25/2/28 35/28/34 34/3/39
f 21/6/8 22/54/7 32/45/36 31/52/40
