# This file uses centimeters as units for non-parametric coordinates.

mtllib lefthand3.mtl
g default
v 94.606068 233.449028 -87.458179
v 100.569543 232.416091 -85.925653
v 103.119430 234.820237 -85.000568
v 104.123867 238.111599 -84.358834
v 100.645556 242.464397 -84.777092
v 103.219936 241.059085 -84.239742
v 53.520518 228.995626 -46.861000
v 53.327210 228.211417 -48.776435
v 53.871089 227.101612 -49.687635
v 54.798827 225.998821 -49.969236
v 55.939226 225.429952 -48.753023
v 56.762674 225.547955 -47.047169
v 56.894570 226.383694 -45.345356
v 56.406335 227.535089 -44.257744
v 54.246466 229.164946 -45.214769
v 55.455849 228.564403 -44.191265
v 66.364476 232.577646 -59.916404
v 65.811746 230.742779 -61.192651
v 66.238183 228.500600 -61.519806
v 67.480132 226.711802 -60.772311
v 69.050961 226.061190 -59.253081
v 70.344381 226.794064 -57.553268
v 70.874969 228.626844 -56.310727
v 70.450107 230.860637 -55.984795
v 67.673569 233.303298 -58.196368
v 69.231335 232.646259 -56.699348
v 80.739228 236.515214 -71.933088
v 80.262451 234.371141 -74.128037
v 80.861706 231.431670 -74.946856
v 82.306984 228.825230 -74.075248
v 84.033983 227.553715 -71.871341
v 85.377150 228.101191 -69.193333
v 85.832167 230.250808 -67.048009
v 85.235129 233.179271 -66.232252
v 82.098423 237.047988 -69.226577
v 83.813042 235.773303 -67.056158
v 89.977226 238.147451 -80.891183
v 89.355102 235.801422 -83.136210
v 90.248299 232.821650 -84.391361
v 92.368559 230.397455 -84.139511
v 94.904393 229.473781 -82.486525
v 96.825895 230.357668 -80.112068
v 97.395325 232.690277 -77.921673
v 96.436701 235.601671 -76.715740
v 91.873980 238.977289 -78.526554
v 94.337648 238.004429 -76.937643
v 94.133889 236.839564 -88.318423
v 95.594300 239.233889 -86.974246
v 98.327568 241.826386 -86.154182
v 53.735804 201.691525 -50.623774
v 53.730220 201.449127 -50.448412
v 53.089005 201.526678 -50.897600
vt 0.765676 0.877310
vt 0.957524 0.871502
vt 0.039711 0.900098
vt 0.900325 0.926425
vt 0.752455 0.921601
vt 0.893252 0.879269
vt 0.743536 0.874434
vt 0.756588 0.973917
vt 0.968044 0.796125
vt 0.037375 0.899703
vt 0.980828 0.803222
vt 0.874317 0.799509
vt 0.965655 0.870696
vt 0.039562 0.899478
vt 0.758791 0.837281
vt 0.743536 0.771532
vt 0.954565 0.825893
vt 0.961650 0.924175
vt 0.763887 0.924778
vt 0.901095 0.881838
vt 0.981051 0.976193
vt 0.778877 0.955092
vt 0.752991 0.972411
vt 0.712527 0.938986
vt 0.974556 0.800463
vt 0.873021 0.792755
vt 0.773077 0.837622
vt 0.885562 0.783211
vt 0.750358 0.834737
vt 0.740137 0.779761
vt 0.787762 0.905962
vt 0.912427 0.825171
vt 0.967851 0.924528
vt 0.758347 0.874488
vt 0.977100 0.979068
vt 0.967898 0.980004
vt 0.759708 0.976320
vt 0.766059 0.836105
vt 0.976840 0.831618
vt 0.891926 0.789876
vt 0.960223 0.829319
vt 0.765676 0.842725
vt 0.782932 0.909171
vt 0.772250 0.865001
vt 0.749896 0.873390
vt 0.785515 0.950774
vt 0.925024 0.777240
vt 0.972466 0.980504
vt 0.716029 0.779966
vt 0.908822 0.925025
vt 0.713055 0.948419
vt 0.968711 0.831508
vt 0.900477 0.824371
vt 0.747226 0.923166
vt 0.765676 0.863786
vt 0.973469 0.868797
vt 0.782289 0.953444
vt 0.976320 0.923965
vt 0.776591 0.910174
vt 0.781443 0.834737
vt 0.914123 0.922121
vt 0.882536 0.775011
vt 0.704277 0.948419
vt 0.906310 0.824950
vt 0.908890 0.883411
vt 0.787762 0.859825
vt 0.915496 0.775011
vt 0.750278 0.972260
vt 0.973468 0.924446
vt 0.771173 0.908587
vt 0.719095 0.764748
vt 0.963942 0.794622
vt 0.869900 0.786258
vt 0.705634 0.933942
vt 0.891926 0.925795
vt 0.733678 0.786096
vt 0.743582 0.836060
vt 0.758814 0.922216
vt 0.780693 0.863487
vt 0.913617 0.883368
vt 0.920351 0.776806
vt 0.718126 0.773632
vn 0.580556 -0.393293 0.712934
vn 0.552030 0.234643 0.800128
vn 0.561061 0.317943 0.764279
vn 0.616184 -0.352181 0.704475
vn -0.485552 0.824516 -0.290538
vn -0.679776 0.364545 -0.636405
vn -0.655540 0.537414 -0.530522
vn -0.432878 0.882074 -0.185910
vn 0.013830 -0.996418 -0.083424
vn 0.365389 -0.853374 0.371810
vn 0.380244 -0.843154 0.380140
vn 0.015706 -0.998507 -0.052309
vn 0.263855 0.771932 0.578361
vn -0.135907 0.977636 0.160490
vn -0.108914 0.974620 0.195583
vn 0.246355 0.807686 0.535680
vn -0.677672 0.348459 -0.647563
vn -0.640465 -0.266834 -0.720142
vn -0.633402 -0.261010 -0.728474
vn -0.467151 0.828019 -0.310088
vn -0.360120 -0.785589 -0.503154
vn -0.402526 -0.759632 -0.510815
vn -0.681816 -0.121358 -0.721387
vn 0.584302 0.225878 0.779468
vn 0.318888 0.743759 0.587480
vn 0.624229 -0.365697 0.690365
vn 0.042515 -0.993511 -0.105492
vn 0.422889 -0.833802 0.354878
vn -0.365009 -0.778017 -0.511329
vn -0.482147 0.829574 -0.281676
vn -0.690199 0.397884 -0.604412
vn 0.377806 0.680514 0.627824
vn -0.080880 0.971815 0.221438
vn -0.086193 0.982243 0.166639
vn 0.662219 0.147517 0.734646
vn 0.065729 -0.991679 -0.110687
vn 0.516180 -0.802203 0.300046
vn -0.375917 -0.755662 -0.536341
vn -0.658122 -0.228339 -0.717451
vn -0.637628 0.603517 -0.478746
vn -0.706325 0.183030 -0.683817
vn -0.497868 -0.371819 -0.783504
vn 0.706602 -0.400568 0.583318
vn 0.695294 -0.653970 0.298142
vn 0.762925 -0.363247 0.534787
vn 0.677333 0.107371 0.727799
vn 0.416637 0.556287 0.718999
vn -0.031477 0.907109 0.419716
vn -0.438922 0.894427 -0.085712
vn 0.441451 -0.532594 -0.722125
vn 0.441451 -0.532594 -0.722125
vn 0.441451 -0.532594 -0.722125
s 1
g body
usemtl CylinderFBXASC046001SG
f 23/5/1 24/78/2 14/8/3 13/23/4
f 17/69/5 18/58/6 8/21/7 7/35/8
f 21/64/9 22/53/10 12/67/11 11/81/12
f 26/18/13 25/33/14 15/48/15 16/36/16
f 28/44/17 29/79/18 19/43/19 18/59/6
f 27/55/20 28/44/17 18/59/6 17/70/5
f 19/43/19 20/31/21 10/46/22 9/57/23
f 34/34/24 36/1/25 26/19/13 24/78/2
f 33/45/26 34/34/24 24/78/2 23/5/1
f 31/20/27 32/6/28 22/53/10 21/64/9
f 30/65/29 31/20/27 21/64/9 20/32/21
f 25/33/14 17/69/5 7/35/8 15/48/15
f 18/59/6 19/43/19 9/57/23 8/22/7
f 24/78/2 26/19/13 16/37/16 14/8/3
f 22/54/10 23/5/1 13/23/4 12/68/11
f 20/32/21 21/64/9 11/81/12 10/47/22
f 37/38/30 38/27/31 28/44/17 27/55/20
f 32/7/28 33/45/26 23/5/1 22/54/10
f 46/41/32 45/52/33 35/13/34 36/2/25
f 44/15/35 46/42/32 36/1/25 34/34/24
f 35/13/34 27/56/20 17/69/5 25/33/14
f 29/79/18 30/66/29 20/31/21 19/43/19
f 41/4/36 42/75/37 32/6/28 31/20/27
f 40/50/38 41/4/36 31/20/27 30/65/29
f 36/2/25 35/13/34 25/33/14 26/18/13
f 38/27/31 39/60/39 29/79/18 28/44/17
f 39/61/39 40/50/38 30/65/29 29/80/18
f 39/62/39 38/28/31 48/26/40 47/73/41
f 40/51/38 39/63/39 47/74/41 1/24/42
f 43/29/43 44/15/35 34/34/24 33/45/26
f 45/52/33 37/39/30 27/56/20 35/13/34
f 43/30/43 42/76/37 2/49/44 3/82/45
f 44/16/35 43/30/43 3/82/45 4/71/46
f 42/77/37 43/29/43 33/45/26 32/7/28
f 45/52/33 46/41/32 6/9/47 5/25/48
f 37/39/30 45/52/33 5/25/48 49/11/49
f 46/41/32 44/17/35 4/72/46 6/9/47
f 38/28/31 37/40/30 49/12/49 48/26/40
s off
f 52/10/50 50/14/51 51/3/52
