# This file uses centimeters as units for non-parametric coordinates.

mtllib righthand3.mtl
g default
v 15.071830 252.384333 -62.801824
v 16.135957 253.899742 -65.815169
v 14.303379 249.106565 -61.251827
v 14.139058 245.316123 -61.756734
v 14.692903 242.461995 -64.195690
v 15.784148 241.639508 -67.701503
v 16.968330 243.166091 -70.913039
v 17.701215 246.447953 -72.460795
v 17.753576 250.234688 -71.798839
v 17.147711 253.079523 -69.239657
v 29.261491 254.652307 -58.800205
v 29.996773 255.901838 -61.478639
v 29.084421 251.991577 -57.273493
v 29.529193 248.931711 -57.463252
v 30.426708 246.635900 -59.294658
v 31.438796 245.981432 -62.091612
v 32.181350 247.224627 -64.804470
v 32.367254 249.893836 -66.380166
v 31.920803 252.965253 -66.188844
v 31.013369 255.259820 -64.306312
v 52.477423 259.826531 -51.230897
v 53.070162 260.914857 -53.158948
v 52.438872 257.760484 -50.196176
v 52.965392 255.501598 -50.432276
v 53.856838 253.908574 -51.849477
v 54.777212 253.591369 -53.924444
v 55.377295 254.676779 -55.878293
v 55.424345 256.751722 -56.952124
v 54.895850 259.019030 -56.715139
v 53.994677 260.608504 -55.258280
v 70.358379 262.796749 -43.698474
v 71.567768 263.397263 -44.721985
v 69.407889 261.767410 -43.764959
v 68.919646 260.616007 -44.852570
v 69.037924 259.780578 -46.540173
v 69.838646 259.662995 -48.222334
v 70.980725 260.231866 -49.440305
v 71.932784 261.334192 -49.184059
v 72.487021 262.443764 -48.283649
v 72.293720 263.227959 -46.368212
vt 0.937128 0.396315
vt 0.858033 0.620284
vt 0.973102 0.479458
vt 0.932593 0.601104
vt 0.822055 0.775011
vt 0.906092 0.267207
vt 0.978013 0.358026
vt 0.923178 0.208862
vt 0.921692 0.544710
vt 0.924068 0.400944
vt 0.828178 0.723841
vt 0.928646 0.603561
vt 0.948561 0.455427
vt 0.970071 0.358074
vt 0.936696 0.541267
vt 0.971052 0.429627
vt 0.973176 0.310356
vt 0.823662 0.720710
vt 0.987093 0.430797
vt 0.982333 0.478558
vt 0.839316 0.655810
vt 0.928302 0.541756
vt 0.963382 0.310901
vt 0.948561 0.396402
vt 0.890731 0.210428
vt 0.840013 0.725683
vt 0.977274 0.478028
vt 0.894410 0.138916
vt 0.833750 0.651458
vt 0.986221 0.357546
vt 0.981048 0.430942
vt 0.848964 0.614356
vt 0.834428 0.725741
vt 0.881129 0.212251
vt 0.819799 0.772044
vt 0.916587 0.138752
vt 0.919622 0.459855
vt 0.873436 0.140040
vt 0.854818 0.659995
vt 0.943684 0.543427
vt 0.974936 0.430492
vt 0.896413 0.098356
vt 0.983345 0.310677
vt 0.842866 0.607339
vt 0.931657 0.266795
vt 0.818342 0.768057
vt 0.986761 0.480562
vt 0.938971 0.453807
vt 0.847370 0.659073
vt 0.923647 0.097235
vt 0.914345 0.408528
vt 0.866591 0.622848
vt 0.870429 0.099272
vt 0.941901 0.264115
vt 0.926027 0.608064
vt 0.918928 0.267803
vt 0.927924 0.455497
vt 0.906829 0.209134
vn -0.141683 -0.447542 0.882968
vn -0.153933 -0.410370 0.898833
vn -0.307405 0.171660 0.935967
vn -0.282105 0.133327 0.950074
vn -0.162362 0.984880 0.060408
vn -0.201953 0.977824 0.055451
vn 0.024120 0.855865 -0.516637
vn 0.060249 0.842083 -0.535972
vn 0.417909 -0.233025 -0.878096
vn 0.415025 -0.180862 -0.891652
vn 0.428822 -0.707538 -0.561696
vn 0.409024 -0.742117 -0.531001
vn 0.066800 -0.854324 0.515431
vn 0.074391 -0.839994 0.537472
vn -0.296938 0.695606 0.654187
vn -0.330454 0.708647 0.623394
vn 0.279775 0.376035 -0.883359
vn 0.257532 0.416174 -0.872053
vn 0.271721 -0.962326 -0.009763
vn 0.296408 -0.954885 -0.018346
vn -0.208006 0.976242 0.060712
vn 0.011440 0.891909 -0.452070
vn 0.419531 -0.111895 -0.900818
vn 0.454892 -0.687852 -0.565626
vn 0.119040 -0.855015 0.504756
vn -0.133393 -0.472516 0.871169
vn -0.358030 0.715351 0.600072
vn 0.241867 0.507763 -0.826848
vn 0.334369 -0.942227 -0.020153
vn -0.333123 0.131056 0.933731
vn 0.386832 0.183038 -0.903802
vn 0.488490 -0.574865 -0.656436
vn 0.165137 -0.873471 0.458016
vn -0.131772 -0.531507 0.836742
vn -0.325935 0.821158 0.468472
vn -0.156391 0.986792 0.042235
vn 0.185569 0.733342 -0.654043
vn 0.371186 -0.928269 -0.023164
vn -0.385095 0.206259 0.899533
vn 0.015629 0.944462 -0.328249
s 1
g body
usemtl CylinderFBXASC046001SG
f 4/1/1 14/48/2 13/57/3 3/10/4
f 2/42/5 12/28/6 20/38/7 10/53/8
f 8/32/9 18/21/10 17/29/11 7/44/12
f 5/24/13 15/13/14 14/48/2 4/1/1
f 1/50/15 11/36/16 12/28/6 2/42/5
f 9/2/17 19/49/18 18/21/10 8/32/9
f 6/17/19 16/7/20 15/14/14 5/23/13
f 3/10/4 13/57/3 11/37/16 1/51/15
f 10/52/8 20/39/7 19/49/18 9/2/17
f 7/43/12 17/30/11 16/7/20 6/17/19
f 12/28/6 22/58/21 30/25/22 20/38/7
f 18/21/10 28/11/23 27/18/24 17/29/11
f 15/13/14 25/40/25 24/15/26 14/48/2
f 11/36/16 21/8/27 22/58/21 12/28/6
f 19/49/18 29/33/28 28/11/23 18/21/10
f 16/7/20 26/31/29 25/41/25 15/14/14
f 13/57/3 23/22/30 21/9/27 11/37/16
f 20/39/7 30/26/22 29/33/28 19/49/18
f 17/30/11 27/19/24 26/31/29 16/7/20
f 14/48/2 24/15/26 23/22/30 13/57/3
f 28/11/23 38/35/31 37/46/32 27/18/24
f 25/41/25 35/27/33 34/3/34 24/16/26
f 21/8/27 31/54/35 32/45/36 22/58/21
f 29/33/28 39/5/37 38/35/31 28/11/23
f 26/31/29 36/20/38 35/27/33 25/41/25
f 23/22/30 33/12/39 31/55/35 21/9/27
f 30/25/22 40/56/40 39/6/37 29/34/28
f 27/19/24 37/47/32 36/20/38 26/31/29
f 24/15/26 34/4/34 33/12/39 23/22/30
f 22/58/21 32/45/36 40/56/40 30/25/22
