# This file uses centimeters as units for non-parametric coordinates.

mtllib rightleg2.mtl
g default
v 32.163018 144.419210 -90.418111
v 27.968678 145.162027 -91.321994
v 25.106515 145.906769 -94.445064
v 24.797268 146.368478 -98.601520
v 27.159634 146.369913 -102.195874
v 31.164159 145.910512 -103.843318
v 35.282737 145.165703 -102.908633
v 38.059455 144.414926 -99.711906
v 38.364858 143.954786 -95.569450
v 36.089457 143.959954 -92.054272
v 31.344996 133.165626 -92.137121
v 27.516141 133.774980 -92.988282
v 24.905803 134.413971 -95.874479
v 24.621059 134.839051 -99.701412
v 26.770716 134.887925 -103.007310
v 30.423594 134.541279 -104.521321
v 34.216356 133.931724 -103.667492
v 36.728467 133.294004 -100.760819
v 37.016729 132.870596 -96.921588
v 34.961788 132.818794 -93.648466
v 28.890878 122.658183 -91.784599
v 24.720754 122.899606 -92.778701
v 22.139981 123.776221 -96.327827
v 22.008762 124.636702 -100.846023
v 24.285939 124.958401 -104.465352
v 28.261462 125.007535 -106.086859
v 32.435105 124.766161 -105.093017
v 35.206512 124.327352 -101.856100
v 35.524228 123.858231 -97.612980
v 33.076161 123.145769 -93.727610
v 28.328804 115.866623 -94.529712
v 24.912926 115.484477 -95.391032
v 22.640841 115.479879 -98.024895
v 22.387642 115.857913 -101.428022
v 24.250043 116.474164 -104.300530
v 27.510950 117.093165 -105.544806
v 30.922452 117.478546 -104.685391
v 33.182314 117.483055 -102.050640
v 33.435512 117.105027 -98.647508
v 31.584893 116.487911 -95.775212
vt 0.702945 0.268313
vt 0.615062 0.260569
vt 0.452872 0.309533
vt 0.600648 0.317003
vt 0.611301 0.350663
vt 0.720479 0.289527
vt 0.223764 0.593954
vt 0.242562 0.573379
vt 0.629476 0.282796
vt 0.434436 0.281162
vt 0.693323 0.267450
vt 0.446194 0.257576
vt 0.726579 0.209317
vt 0.207385 0.514175
vt 0.704599 0.242166
vt 0.218769 0.511724
vt 0.712817 0.288486
vt 0.231637 0.574564
vt 0.725215 0.269889
vt 0.219211 0.574395
vt 0.455359 0.255313
vt 0.598032 0.263056
vt 0.232558 0.542410
vt 0.628674 0.314679
vt 0.695928 0.240676
vt 0.431931 0.308529
vt 0.601980 0.350549
vt 0.454590 0.343033
vt 0.606275 0.286948
vt 0.714813 0.268842
vt 0.222579 0.544637
vt 0.212075 0.546675
vt 0.724021 0.241925
vt 0.229697 0.509058
vt 0.632397 0.348026
vt 0.618891 0.284839
vt 0.622954 0.260989
vt 0.242412 0.595577
vt 0.705732 0.209738
vt 0.609232 0.316972
vt 0.715330 0.242643
vt 0.443030 0.342255
vt 0.445782 0.280456
vt 0.233363 0.594855
vt 0.619937 0.316085
vt 0.622928 0.349699
vt 0.703275 0.288062
vt 0.457140 0.279766
vt 0.596833 0.287757
vt 0.605542 0.261358
vt 0.717347 0.210254
vt 0.442341 0.309029
vt 0.431709 0.341475
vt 0.696143 0.207963
vt 0.437064 0.259850
vt 0.695495 0.288414
vn -0.644218 0.075418 -0.761115
vn -0.096612 0.065335 -0.993176
vn -0.063767 0.114307 -0.991397
vn -0.622960 0.163966 -0.764877
vn 0.095022 -0.081560 0.992128
vn -0.507005 0.014663 0.861819
vn -0.541084 -0.034337 0.840267
vn 0.070620 -0.141969 0.987349
vn -0.968574 0.038772 -0.245684
vn -0.959042 0.152855 -0.238482
vn 0.048787 -0.155060 0.986700
vn -0.524719 -0.102994 0.845022
vn -0.921493 -0.031521 0.387114
vn -0.913910 0.095715 0.394472
vn 0.614307 -0.173334 0.769794
vn 0.645475 -0.153286 0.748242
vn 0.959871 -0.144610 0.240283
vn 0.960892 -0.157292 0.227918
vn 0.914645 -0.071552 -0.397875
vn 0.916178 -0.087949 -0.391003
vn 0.502238 0.010226 -0.864669
vn 0.524469 0.017292 -0.851254
vn 0.901605 -0.162987 -0.400679
vn 0.947042 -0.230139 0.223935
vn 0.925459 -0.317951 0.205992
vn 0.879572 -0.245599 -0.407474
vn -0.090563 0.079006 -0.992752
vn -0.644931 0.144303 -0.750494
vn -0.926265 0.075088 0.369316
vn 0.631292 -0.215447 0.745019
vn 0.501651 -0.040075 -0.864141
vn -0.963047 0.142469 -0.228569
vn -0.123351 -0.055228 -0.990825
vn -0.671430 -0.012360 -0.740965
vn -0.945684 -0.125070 0.300065
vn -0.581067 -0.270915 0.767442
vn 0.623192 -0.359544 0.694522
vn 0.473510 -0.144587 -0.868840
vn -0.969866 -0.033489 -0.241327
vn 0.064494 -0.367764 0.927680
s 1
g body
usemtl CylinderFBXASC046001SG
f 5/28/1 6/42/2 16/52/3 15/3/4
f 11/31/5 12/23/6 22/8/7 21/18/8
f 4/5/9 5/27/1 15/4/4 14/40/10
f 1/16/11 2/34/12 12/23/6 11/31/5
f 3/46/13 4/5/9 14/40/10 13/45/14
f 2/35/12 3/46/13 13/45/14 12/24/6
f 10/14/15 1/16/11 11/31/5 20/32/16
f 9/51/17 10/13/15 20/33/16 19/41/18
f 8/39/19 9/51/17 19/41/18 18/15/20
f 7/54/21 8/39/19 18/15/20 17/25/22
f 6/42/2 7/53/21 17/26/22 16/52/3
f 28/1/23 29/30/24 39/17/25 38/47/26
f 18/15/20 19/41/18 29/30/24 28/1/23
f 15/3/4 16/52/3 26/43/27 25/48/28
f 12/24/6 13/45/14 23/36/29 22/9/7
f 19/41/18 20/33/16 30/19/30 29/30/24
f 16/52/3 17/26/22 27/10/31 26/43/27
f 13/45/14 14/40/10 24/29/32 23/36/29
f 20/32/16 11/31/5 21/18/8 30/20/30
f 17/25/22 18/15/20 28/1/23 27/11/31
f 14/40/10 15/4/4 25/49/28 24/29/32
f 25/48/28 26/43/27 36/12/33 35/21/34
f 22/9/7 23/36/29 33/2/35 32/37/36
f 29/30/24 30/19/30 40/6/37 39/17/25
f 26/43/27 27/10/31 37/55/38 36/12/33
f 23/36/29 24/29/32 34/50/39 33/2/35
f 30/20/30 21/18/8 31/44/40 40/7/37
f 27/11/31 28/1/23 38/47/26 37/56/38
f 24/29/32 25/49/28 35/22/34 34/50/39
f 21/18/8 22/8/7 32/38/36 31/44/40
