# This file uses centimeters as units for non-parametric coordinates.

mtllib righthand2.mtl
g default
v 8.887690 251.584266 -70.655785
v 6.256436 252.558919 -68.413810
v 9.541591 247.996357 -71.799057
v 9.646714 245.708893 -74.689071
v 5.051738 245.862654 -75.259881
v 2.407436 246.572457 -76.050949
v -0.229784 248.434394 -75.637504
v -1.786427 250.920257 -74.057095
v -1.579056 253.225574 -71.539067
v 3.115520 253.851298 -68.441929
v 4.831587 250.848114 -66.692070
v 3.645565 243.582938 -72.869067
v 1.947324 241.014001 -70.413526
v -0.732493 241.357267 -70.187321
v -2.710201 243.439994 -69.760766
v -3.272492 246.405081 -69.311598
v -2.271425 249.093140 -69.035267
v 15.071830 252.384333 -62.801824
v 16.135957 253.899742 -65.815169
v 14.303379 249.106565 -61.251827
v 14.139058 245.316123 -61.756734
v 14.692903 242.461995 -64.195690
v 15.784148 241.639508 -67.701503
v 16.968330 243.166091 -70.913039
v 17.701215 246.447953 -72.460795
v 17.753576 250.234688 -71.798839
v 17.147711 253.079523 -69.239657
v 4.666326 247.543887 -64.024348
v 4.550919 243.534458 -64.817860
v 5.731580 240.454744 -67.200446
v 7.862606 239.582436 -70.332315
v 9.999448 241.631467 -73.275922
v 70.337915 234.736506 -51.945459
v 70.352315 234.494279 -51.760925
v 70.961376 234.571185 -52.243633
vt 0.977970 0.271800
vt 0.860819 0.574284
vt 0.937128 0.396315
vt 0.858033 0.620284
vt 0.863425 0.596859
vt 0.944465 0.960399
vt 0.962228 0.283140
vt 0.947834 0.363681
vt 0.870156 0.557646
vt 0.930108 0.981997
vt 0.930813 0.338559
vt 0.941901 0.096340
vt 0.924068 0.400944
vt 0.891101 0.069730
vt 0.910797 0.066644
vt 0.935046 0.361722
vt 0.862439 0.559696
vt 0.966166 0.261943
vt 0.939988 0.343432
vt 0.973176 0.310356
vt 0.863354 0.581681
vt 0.986533 0.274036
vt 0.893076 0.060522
vt 0.982671 0.289110
vt 0.847661 0.587621
vt 0.939235 0.067672
vt 0.921188 0.366819
vt 0.928865 0.965291
vt 0.907237 0.044159
vt 0.963382 0.310901
vt 0.948561 0.396402
vt 0.856946 0.593479
vt 0.069465 0.873435
vt 0.068644 0.871404
vt 0.929713 0.973356
vt 0.919966 0.339880
vt 0.911162 0.041016
vt 0.848964 0.614356
vt 0.876116 0.572068
vt 0.947537 0.967729
vt 0.896413 0.098356
vt 0.983345 0.310677
vt 0.842866 0.607339
vt 0.873021 0.600940
vt 0.871846 0.075897
vt 0.868254 0.575821
vt 0.987093 0.265640
vt 0.968318 0.269309
vt 0.923647 0.097235
vt 0.866591 0.622848
vt 0.870429 0.099272
vt 0.937649 0.953312
vt 0.877002 0.044557
vt 0.069465 0.871002
vt 0.971979 0.285807
vn -0.716950 -0.348109 -0.603989
vn -0.325204 -0.615564 -0.717860
vn -0.509535 -0.858847 -0.052497
vn -0.836227 -0.509072 0.203888
vn -0.956244 0.003348 -0.292550
vn -0.906834 -0.013384 0.421276
vn -0.706912 0.395415 0.586449
vn -0.672572 0.397813 0.624013
vn -0.069496 -0.604775 -0.793358
vn -0.107483 -0.660802 -0.742825
vn -0.161003 -0.871556 -0.463107
vn 0.235800 -0.971793 -0.004119
vn 0.052093 -0.979567 -0.194255
vn 0.181938 -0.685273 -0.705195
vn 0.348533 -0.640349 -0.684454
vn -0.010649 0.498223 -0.866983
vn -0.005097 0.499268 -0.866432
vn -0.059772 0.792962 -0.606332
vn -0.057341 0.760978 -0.646239
vn -0.314124 0.708759 0.631654
vn -0.372629 0.574086 0.729090
vn -0.404512 0.160676 0.900307
vn -0.330866 0.273947 0.903040
vn -0.012018 -0.809631 0.586816
vn -0.138022 -0.829791 0.540737
vn 0.187434 0.102466 -0.976918
vn 0.122381 -0.149223 -0.981201
vn -0.181456 0.982362 0.045142
vn -0.191939 0.951850 0.239042
vn -0.207605 -0.376687 0.902778
vn -0.337557 -0.412765 0.845979
vn -0.414281 0.425548 0.804537
vn -0.474424 -0.551135 -0.686420
vn -0.474424 -0.551135 -0.686420
vn -0.474424 -0.551135 -0.686420
s 1
g body
usemtl CylinderFBXASC046001SG
f 7/39/1 6/46/2 14/17/3 15/9/4
f 8/6/5 7/40/1 15/10/4 16/35/6
f 9/52/7 8/6/5 16/35/6 17/28/8
f 6/47/2 5/22/9 12/1/10 13/48/11 14/18/3
f 23/20/12 31/55/13 32/24/14 24/42/15
f 26/4/16 3/5/17 1/44/18 27/50/19
f 18/49/20 11/15/21 28/26/22 20/12/23
f 22/30/24 30/7/25 31/55/13 23/20/12
f 25/38/26 4/32/27 3/5/17 26/4/16
f 19/41/28 2/14/29 11/15/21 18/49/20
f 21/3/30 29/16/31 30/8/25 22/31/24
f 24/43/15 32/25/14 4/32/27 25/38/26
f 27/51/19 1/45/18 2/14/29 19/41/28
f 20/13/23 28/27/22 29/16/31 21/3/30
f 2/14/29 10/23/32 11/15/21
f 29/16/31 15/11/4 14/19/3 30/8/25
f 32/25/14 12/2/10 5/21/9 4/32/27
f 28/27/22 16/36/6 15/11/4 29/16/31
f 31/55/13 13/48/11 12/1/10 32/24/14
f 11/15/21 17/29/8 16/37/6 28/26/22
f 30/7/25 14/18/3 13/48/11 31/55/13
f 10/23/32 9/53/7 17/29/8 11/15/21
s off
f 35/33/33 34/54/34 33/34/35
