# This file uses centimeters as units for non-parametric coordinates.

mtllib rightleg1.mtl
g default
v 32.163018 144.419210 -90.418111
v 31.761238 157.852207 -88.077390
v 27.968678 145.162027 -91.321994
v 27.157612 159.078011 -89.052646
v 25.106515 145.906769 -94.445064
v 24.043076 160.156499 -92.529592
v 24.797268 146.368478 -98.601520
v 23.696767 160.673527 -97.184064
v 27.159634 146.369913 -102.195874
v 26.251628 160.430656 -101.229601
v 31.164159 145.910512 -103.843318
v 30.642702 159.522200 -103.111159
v 35.282737 145.165703 -102.908633
v 35.197561 158.290606 -102.051675
v 38.059455 144.414926 -99.711906
v 38.210552 157.198480 -98.415095
v 38.364858 143.954786 -95.569450
v 38.550890 156.683098 -93.775282
v 36.089457 143.959954 -92.054272
v 36.094804 156.939494 -89.888446
v 31.581231 193.392178 -83.025991
v 36.930285 191.947151 -81.533674
v 27.967120 194.737915 -88.007730
v 27.478661 195.467180 -94.572960
v 30.303330 195.300103 -100.201811
v 35.352565 194.302669 -102.739081
v 40.695576 192.836512 -101.020837
v 44.318971 191.372334 -94.932405
v 44.805473 190.645955 -88.393330
v 41.970366 190.933143 -83.885925
v 41.264761 174.285404 -96.673752
v 41.678180 173.664529 -91.084305
v 37.946567 175.563560 -101.536253
v 32.997636 176.912435 -102.925123
v 28.277478 177.865384 -100.715704
v 25.587714 178.070352 -95.878512
v 34.345760 174.899683 -84.805531
v 29.369420 176.235093 -86.039319
v 26.005100 177.447208 -90.268661
v 39.032583 173.936320 -86.887186
v 37.546261 206.280118 -79.455893
v 31.611280 210.113653 -80.740287
v 46.533285 202.971617 -95.480671
v 30.269556 212.114057 -98.762045
v 35.890843 208.751643 -101.705585
v 27.346479 212.707838 -85.800870
v 43.015324 202.774574 -82.322770
v 41.677775 204.771579 -100.300679
v 26.833959 213.473015 -92.689412
v 47.401778 203.616293 -87.524636
vt 0.730128 0.171147
vt 0.205641 0.475999
vt 0.637175 0.492714
vt 0.218123 0.472116
vt 0.611301 0.350663
vt 0.444703 0.525576
vt 0.730843 0.043900
vt 0.166610 0.349994
vt 0.445199 0.432521
vt 0.726579 0.209317
vt 0.207385 0.514175
vt 0.442673 0.483403
vt 0.218769 0.511724
vt 0.603167 0.391515
vt 0.460511 0.383684
vt 0.461696 0.534708
vt 0.606482 0.542590
vt 0.208965 0.422324
vt 0.457454 0.485733
vt 0.603996 0.493494
vt 0.230040 0.467997
vt 0.637229 0.388690
vt 0.601980 0.350549
vt 0.454590 0.343033
vt 0.180547 0.342437
vt 0.709209 0.122581
vt 0.616237 0.443301
vt 0.706946 0.172330
vt 0.711472 0.072832
vt 0.229697 0.509058
vt 0.632397 0.348026
vt 0.196070 0.330565
vt 0.447725 0.381639
vt 0.641526 0.545195
vt 0.631930 0.441999
vt 0.705732 0.209738
vt 0.199807 0.372532
vt 0.693563 0.069500
vt 0.427995 0.481103
vt 0.626684 0.391285
vt 0.443030 0.342255
vt 0.622257 0.546793
vt 0.694794 0.119566
vt 0.431557 0.430355
vt 0.221764 0.417887
vt 0.644636 0.439099
vt 0.719955 0.172908
vt 0.213489 0.367778
vt 0.652042 0.489509
vt 0.185170 0.376974
vt 0.741610 0.071636
vt 0.622928 0.349699
vt 0.708541 0.043904
vt 0.435119 0.379607
vt 0.696024 0.169632
vt 0.428154 0.516039
vt 0.693521 0.034750
vt 0.724881 0.123277
vt 0.717347 0.210254
vt 0.618811 0.494237
vt 0.729807 0.073647
vt 0.175460 0.379472
vt 0.613664 0.392364
vt 0.210953 0.318731
vt 0.656894 0.538413
vt 0.431709 0.341475
vt 0.696143 0.207963
vt 0.458982 0.434708
vt 0.603581 0.442504
vt 0.195405 0.426486
vt 0.735869 0.121392
vn 0.088542 -0.168633 0.981694
vn 0.036978 -0.184441 0.982148
vn -0.544246 -0.112314 0.831373
vn -0.502089 -0.167186 0.848502
vn -0.927083 -0.016210 0.374505
vn -0.915999 -0.121395 0.382373
vn -0.972012 0.050868 -0.229359
vn -0.963907 -0.049868 -0.261528
vn -0.661689 0.063028 -0.747124
vn -0.623385 0.013911 -0.781791
vn -0.092256 0.034941 -0.995122
vn -0.046809 0.053784 -0.997455
vn 0.541635 -0.012850 -0.840515
vn 0.554641 0.059452 -0.829963
vn 0.922414 -0.070779 -0.379662
vn 0.929186 0.024117 -0.368824
vn 0.962609 -0.145092 0.228762
vn 0.972271 -0.047056 0.229073
vn 0.955181 -0.209145 0.209493
vn 0.924876 -0.136123 -0.355070
vn 0.928634 -0.146481 -0.340856
vn 0.953201 -0.203125 0.223937
vn 0.607823 -0.196500 0.769376
vn 0.648133 -0.124058 0.751354
vn 0.590424 -0.065759 -0.804410
vn 0.593070 -0.054508 -0.803304
vn -0.076063 0.026623 -0.996748
vn -0.080407 0.046938 -0.995656
vn -0.677053 0.102014 -0.728829
vn -0.695008 0.078922 -0.714658
vn -0.971461 0.117027 -0.206321
vn -0.977971 0.048939 -0.202924
vn -0.561485 -0.070529 0.824476
vn 0.042384 -0.190517 0.980769
vn 0.037983 -0.168781 0.984921
vn -0.581691 -0.090251 0.808387
vn -0.928832 0.053382 0.366635
vn -0.936865 -0.012417 0.349471
vn 0.608119 -0.240322 0.756596
vn 0.611206 -0.207932 0.763669
vn -0.985095 -0.012840 -0.171530
vn -0.770235 0.045913 -0.636105
vn 0.515391 -0.015580 -0.856814
vn 0.915165 -0.152356 -0.373176
vn 0.586353 -0.166741 0.792709
vn -0.097385 -0.141118 0.985191
vn -0.949493 -0.065961 0.306776
vn -0.227419 0.072841 -0.971069
vn 0.954766 -0.194863 0.224610
vn -0.668105 -0.106528 0.736401
s 1
g body
usemtl CylinderFBXASC046001SG
f 1/13/1 2/4/2 4/21/3 3/30/4
f 3/31/4 4/22/3 6/40/5 5/52/6
f 5/52/6 6/40/5 8/63/7 7/5/8
f 7/5/8 8/63/7 10/14/9 9/23/10
f 9/24/10 10/15/9 12/33/11 11/41/12
f 11/41/12 12/33/11 14/54/13 13/66/14
f 13/67/14 14/55/13 16/28/15 15/36/16
f 15/36/16 16/28/15 18/47/17 17/59/18
f 32/58/19 31/26/20 28/29/21 29/61/22
f 17/59/18 18/47/17 20/1/23 19/10/24
f 19/11/24 20/2/23 2/4/2 1/13/1
f 31/26/20 33/43/25 27/38/26 28/29/21
f 33/44/25 34/9/27 26/12/28 27/39/26
f 34/9/27 35/68/29 25/19/30 26/12/28
f 35/69/29 36/27/31 24/60/32 25/20/30
f 38/45/33 37/18/34 22/37/35 21/48/36
f 36/27/31 39/35/37 23/3/38 24/60/32
f 39/35/37 38/46/33 21/49/36 23/3/38
f 37/18/34 40/70/39 30/50/40 22/37/35
f 40/71/39 32/58/19 29/61/22 30/51/40
f 20/1/23 18/47/17 32/58/19 40/71/39
f 2/4/2 20/2/23 40/70/39 37/18/34
f 6/40/5 4/22/3 38/46/33 39/35/37
f 8/63/7 6/40/5 39/35/37 36/27/31
f 4/21/3 2/4/2 37/18/34 38/45/33
f 10/14/9 8/63/7 36/27/31 35/69/29
f 12/33/11 10/15/9 35/68/29 34/9/27
f 14/54/13 12/33/11 34/9/27 33/44/25
f 16/28/15 14/55/13 33/43/25 31/26/20
f 18/47/17 16/28/15 31/26/20 32/58/19
f 25/20/30 24/60/32 49/42/41 44/17/42
f 28/29/21 27/38/26 48/57/43 43/53/44
f 22/37/35 30/50/40 47/25/45 41/32/46
f 24/60/32 23/3/38 46/34/47 49/42/41
f 27/39/26 26/12/28 45/6/48 48/56/43
f 30/50/40 29/62/22 50/8/49 47/25/45
f 23/3/38 21/49/36 42/65/50 46/34/47
f 26/12/28 25/19/30 44/16/42 45/6/48
f 29/61/22 28/29/21 43/53/44 50/7/49
f 21/48/36 22/37/35 41/32/46 42/64/50
