# This file uses centimeters as units for non-parametric coordinates.

mtllib leftleg1.mtl
g default
v 76.122212 145.502444 -97.916246
v 74.012832 158.960828 -98.917653
v 80.240584 146.024002 -97.174772
v 78.315362 159.924022 -97.832222
v 82.942727 146.032596 -93.888912
v 81.181407 160.200111 -94.269387
v 83.193639 145.563076 -89.664190
v 81.513415 159.682598 -89.610289
v 80.951065 144.795491 -86.107625
v 79.176989 158.569820 -85.644064
v 77.146255 144.008982 -84.457238
v 75.048960 157.289102 -83.858733
v 73.152778 143.501362 -85.311290
v 70.739406 156.329798 -84.935116
v 70.512065 143.474328 -88.421258
v 67.963796 156.056678 -88.467482
v 70.192963 143.918963 -92.439471
v 67.669604 156.572754 -93.119228
v 72.300635 144.691462 -96.044023
v 69.941267 157.681432 -97.113613
v 70.552449 194.937807 -97.933114
v 65.209762 193.884363 -99.707210
v 74.168413 195.139391 -92.775295
v 74.657356 194.409974 -86.208865
v 71.828503 193.029431 -80.753355
v 66.784859 191.528254 -78.496776
v 61.507675 190.481172 -80.294815
v 57.980086 190.283156 -85.448381
v 57.494670 191.009692 -91.988891
v 60.235163 192.384893 -97.432625
v 62.971938 173.169916 -86.957932
v 62.582134 173.791226 -92.554059
v 66.123540 173.405482 -82.614966
v 70.916908 174.408677 -81.177753
v 75.502745 175.799626 -83.198709
v 78.085384 177.046282 -87.909577
v 69.611296 176.422595 -99.312429
v 74.433903 177.430917 -97.882668
v 77.674907 177.669750 -93.522343
v 65.088216 175.033163 -97.273121
v 62.015509 207.154596 -101.093336
v 67.931940 209.783547 -99.103671
v 53.989085 203.434897 -86.052160
v 53.712457 204.612839 -93.495423
v 69.261969 207.796186 -81.212858
v 63.657413 204.700980 -79.005116
v 71.885985 210.910275 -93.645853
v 56.168449 204.204587 -98.676926
v 57.472882 202.255124 -81.127407
v 72.394922 210.150721 -86.808184
vt 0.842466 0.344264
vt 0.564632 0.315107
vt 0.850093 0.481049
vt 0.553527 0.416718
vt 0.344842 0.441810
vt 0.109578 0.521306
vt 0.863028 0.342355
vt 0.357055 0.537782
vt 0.528813 0.268530
vt 0.835173 0.385334
vt 0.340264 0.388395
vt 0.141601 0.346205
vt 0.881389 0.512455
vt 0.546387 0.312387
vt 0.328852 0.392641
vt 0.548659 0.458405
vt 0.559079 0.365913
vt 0.858272 0.379408
vt 0.108133 0.332263
vt 0.578523 0.275942
vt 0.833265 0.347096
vt 0.331806 0.350733
vt 0.832705 0.520217
vt 0.388388 0.518712
vt 0.119501 0.378271
vt 0.320951 0.353555
vt 0.563887 0.420032
vt 0.089248 0.477871
vt 0.543486 0.363588
vt 0.853598 0.342491
vt 0.846118 0.512707
vt 0.360832 0.490979
vt 0.104375 0.375399
vt 0.579051 0.319264
vt 0.317425 0.396917
vt 0.530026 0.414987
vt 0.876194 0.429126
vt 0.123266 0.431782
vt 0.557861 0.460697
vt 0.087553 0.519065
vt 0.332082 0.446443
vt 0.530672 0.363567
vt 0.544864 0.266139
vt 0.346738 0.495970
vt 0.531317 0.312146
vt 0.563863 0.268972
vt 0.868237 0.478156
vt 0.309838 0.356421
vt 0.527140 0.456127
vt 0.847740 0.431258
vt 0.101628 0.480415
vt 0.372326 0.528025
vt 0.125104 0.339668
vt 0.883469 0.478308
vt 0.133367 0.380831
vt 0.540585 0.414790
vt 0.096812 0.426635
vt 0.571469 0.369648
vt 0.098894 0.520284
vt 0.357522 0.437217
vt 0.835550 0.435611
vt 0.863255 0.428782
vt 0.845387 0.381468
vt 0.374779 0.486040
vt 0.835928 0.485888
vt 0.536929 0.456661
vt 0.110564 0.429343
vt 0.113164 0.482733
vt 0.868918 0.379943
vt 0.866652 0.508376
vn -0.092056 -0.086648 -0.991977
vn -0.067842 -0.054331 -0.996216
vn 0.544821 0.084318 -0.834302
vn 0.540782 0.030166 -0.840622
vn 0.923827 0.159664 -0.347925
vn 0.936721 0.105980 -0.333649
vn 0.960594 0.142632 0.238567
vn 0.955194 0.111387 0.274222
vn 0.666773 0.048313 0.743694
vn 0.639181 0.058762 0.766808
vn 0.110031 -0.084331 0.990344
vn 0.102353 -0.026675 0.994390
vn -0.517915 -0.200348 0.831640
vn -0.497456 -0.118932 0.859298
vn -0.909058 -0.253412 0.330751
vn -0.906908 -0.183752 0.379147
vn -0.935024 -0.244742 -0.256575
vn -0.952281 -0.203709 -0.227296
vn -0.932887 -0.269420 -0.239028
vn -0.903750 -0.294253 0.310887
vn -0.914290 -0.280630 0.292096
vn -0.936360 -0.282338 -0.208604
vn -0.630262 -0.179115 -0.755439
vn -0.648174 -0.174413 -0.741249
vn -0.542548 -0.255685 0.800166
vn -0.561336 -0.201644 0.802646
vn 0.093719 -0.128206 0.987310
vn 0.057713 -0.054397 0.996850
vn 0.675514 0.041428 0.736182
vn 0.657143 0.087022 0.748726
vn 0.958711 0.164516 0.231967
vn 0.958424 0.160001 0.236269
vn 0.566912 0.123478 -0.814472
vn -0.056648 -0.033530 -0.997831
vn -0.019284 -0.069332 -0.997407
vn 0.596186 0.083509 -0.798492
vn 0.923342 0.196591 -0.329836
vn 0.933782 0.159416 -0.320372
vn -0.645245 -0.185596 -0.741089
vn -0.639063 -0.223716 -0.735900
vn 0.972473 0.150992 0.177474
vn 0.697508 0.140950 0.702578
vn -0.617305 -0.150752 0.772146
vn -0.940816 -0.270517 0.204170
vn -0.617111 -0.265501 -0.740732
vn 0.058428 -0.095640 -0.993700
vn 0.932058 0.119050 -0.342191
vn 0.069718 0.045152 0.996544
vn -0.929884 -0.300922 -0.211569
vn 0.626324 0.044828 -0.778273
s 1
g body
usemtl CylinderFBXASC046001SG
f 1/26/1 2/15/2 4/35/3 3/48/4
f 3/49/4 4/36/3 6/56/5 5/66/6
f 5/66/6 6/56/5 8/4/7 7/16/8
f 7/16/8 8/4/7 10/27/9 9/39/10
f 9/40/10 10/28/9 12/51/11 11/59/12
f 11/59/12 12/51/11 14/68/13 13/6/14
f 13/7/14 14/69/13 16/18/15 15/30/16
f 15/30/16 16/18/15 18/63/17 17/1/18
f 32/50/19 31/62/20 28/47/21 29/3/22
f 17/1/18 18/63/17 20/10/23 19/21/24
f 19/22/24 20/11/23 2/15/2 1/26/1
f 31/62/20 33/37/25 27/54/26 28/47/21
f 33/38/25 34/67/27 26/25/28 27/55/26
f 34/67/27 35/57/29 25/33/30 26/25/28
f 35/58/29 36/17/31 24/2/32 25/34/30
f 38/41/33 37/5/34 22/32/35 21/44/36
f 36/17/31 39/29/37 23/14/38 24/2/32
f 39/29/37 38/42/33 21/45/36 23/14/38
f 37/5/34 40/60/39 30/64/40 22/32/35
f 40/61/39 32/50/19 29/3/22 30/65/40
f 20/10/23 18/63/17 32/50/19 40/61/39
f 2/15/2 20/11/23 40/60/39 37/5/34
f 6/56/5 4/36/3 38/42/33 39/29/37
f 8/4/7 6/56/5 39/29/37 36/17/31
f 4/35/3 2/15/2 37/5/34 38/41/33
f 10/27/9 8/4/7 36/17/31 35/58/29
f 12/51/11 10/28/9 35/57/29 34/67/27
f 14/68/13 12/51/11 34/67/27 33/38/25
f 16/18/15 14/69/13 33/37/25 31/62/20
f 18/63/17 16/18/15 31/62/20 32/50/19
f 25/34/30 24/2/32 50/46/41 45/20/42
f 28/47/21 27/54/26 49/13/43 43/70/44
f 22/32/35 30/64/40 48/24/45 41/52/46
f 24/2/32 23/14/38 47/43/47 50/46/41
f 27/55/26 26/25/28 46/53/48 49/12/43
f 30/65/40 29/3/22 44/31/49 48/23/45
f 23/14/38 21/45/36 42/9/50 47/43/47
f 26/25/28 25/33/30 45/19/42 46/53/48
f 29/3/22 28/47/21 43/70/44 44/31/49
f 21/44/36 22/32/35 41/52/46 42/8/50
