# This file uses centimeters as units for non-parametric coordinates.

mtllib lefthand4.mtl
g default
v 44.886238 221.729868 -45.733103
v 44.695397 223.826988 -49.492054
v 45.768317 224.582871 -51.282941
v 47.152887 222.577202 -50.620028
v 48.471719 219.760491 -46.338013
v 51.192818 217.908358 -44.208383
v 51.128493 219.076314 -41.705727
v 51.776742 218.788715 -39.913995
v 47.209310 220.062808 -42.282030
v 49.326525 219.295191 -40.932117
v 53.520518 228.995626 -46.861000
v 53.327210 228.211417 -48.776435
v 53.871089 227.101612 -49.687635
v 54.798827 225.998821 -49.969236
v 55.939226 225.429952 -48.753023
v 56.762674 225.547955 -47.047169
v 56.894570 226.383694 -45.345356
v 56.406335 227.535089 -44.257744
v 54.246466 229.164946 -45.214769
v 55.455849 228.564403 -44.191265
v 39.241418 208.727551 -48.415281
v 37.818255 215.463416 -52.045250
v 37.775434 216.462865 -53.740766
v 39.922591 215.635850 -52.551753
v 43.048559 208.697306 -48.578546
v 47.474524 209.801270 -46.337654
v 49.559901 207.538943 -44.033671
v 49.455265 206.891820 -43.069947
v 44.731333 209.552075 -45.578055
v 46.533618 208.654183 -44.445723
v 42.470439 197.071372 -55.013344
v 40.545520 209.334362 -54.414276
v 40.433670 209.998264 -55.061339
v 41.647727 209.453530 -54.588850
v 45.884565 196.423139 -53.724656
v 49.543106 195.931212 -53.067693
v 53.735804 201.691525 -50.623774
v 53.730220 201.449127 -50.448412
v 48.869374 195.809059 -52.854566
v 49.218199 195.404100 -52.584484
v 50.801391 224.215905 -49.538513
v 54.392043 222.980044 -41.738633
v 53.096060 223.730706 -48.001271
v 48.279102 225.292534 -48.547843
v 52.503411 223.855327 -42.353845
v 50.949675 224.649199 -43.763523
v 54.300643 223.173785 -46.035888
v 54.712988 222.935066 -43.689853
v 49.515949 225.271056 -49.690071
v 49.032015 225.461160 -46.380848
v 47.828911 220.067787 -43.740136
v 51.428939 218.751833 -42.193681
v 47.981717 206.890691 -43.681431
v 48.200289 208.854590 -44.911570
v 53.089005 201.526678 -50.897600
v 49.870610 195.548143 -52.693417
v 42.517543 207.421499 -46.416632
v 50.477642 218.395675 -44.974899
v 44.936161 207.641200 -47.086361
v 45.796493 195.684184 -53.147804
v 46.644814 195.827207 -53.405062
v 49.852644 222.238360 -47.522615
v 41.400013 209.076769 -49.607837
v 45.377933 221.804716 -45.194994
v 39.878233 208.505460 -47.924704
v 45.159315 196.334845 -53.259504
v 43.204850 197.219000 -55.186249
v 39.390210 209.979489 -50.442482
v 47.592216 223.117669 -49.482086
v 44.422291 222.774936 -48.084580
v 38.296945 209.724881 -49.675129
v 42.190817 197.502988 -55.323463
v 42.785032 197.709788 -55.612711
v 50.732220 218.944040 -41.160413
vt 0.090462 0.834031
vt 0.174919 0.859450
vt 0.058429 0.779786
vt 0.177462 0.831019
vt 0.227159 0.939407
vt 0.228060 0.763619
vt 0.149305 0.866572
vt 0.215066 0.811642
vt 0.212630 0.891818
vt 0.099748 0.763205
vt 0.125596 0.929297
vt 0.039711 0.900098
vt 0.039864 0.949223
vt 0.160345 0.958023
vt 0.169152 0.860959
vt 0.094521 0.833678
vt 0.157701 0.910586
vt 0.084879 0.973615
vt 0.220146 0.846556
vt 0.039864 0.795732
vt 0.216999 0.856767
vt 0.088552 0.849722
vt 0.076120 0.941236
vt 0.162291 0.873266
vt 0.199419 0.806838
vt 0.054938 0.838041
vt 0.213038 0.845997
vt 0.069604 0.869792
vt 0.147484 0.864128
vt 0.157932 0.856767
vt 0.054929 0.781620
vt 0.061657 0.949223
vt 0.051517 0.950780
vt 0.123225 0.929078
vt 0.037375 0.899703
vt 0.191882 0.960957
vt 0.022317 0.932205
vt 0.100271 0.763845
vt 0.039562 0.899478
vt 0.120412 0.955913
vt 0.074471 0.782800
vt 0.066757 0.769731
vt 0.092083 0.846177
vt 0.160345 0.965879
vt 0.215066 0.763205
vt 0.043057 0.957447
vt 0.212630 0.941297
vt 0.215066 0.846722
vt 0.212630 0.857524
vt 0.147434 0.861698
vt 0.187156 0.773019
vt 0.064922 0.783861
vt 0.170471 0.874241
vt 0.177540 0.850005
vt 0.195282 0.933887
vt 0.096959 0.893656
vt 0.211088 0.856767
vt 0.149325 0.862297
vt 0.226485 0.763205
vt 0.147711 0.866031
vt 0.060730 0.828749
vt 0.188582 0.943329
vt 0.010156 0.950056
vt 0.077364 0.784343
vt 0.039711 0.871649
vt 0.034594 0.981956
vt 0.061612 0.765934
vt 0.080073 0.941382
vt 0.059290 0.794638
vt 0.009299 0.984131
vt 0.174919 0.950724
vt 0.195282 0.857280
vt 0.098475 0.849722
vt 0.054673 0.796820
vt 0.075690 0.820270
vt 0.181758 0.896837
vt 0.199419 0.830392
vt 0.024912 0.933169
vt 0.193404 0.963539
vt 0.224968 0.764087
vt 0.224037 0.939018
vt 0.147434 0.864173
vt 0.048282 0.840145
vt 0.094029 0.852319
vt 0.195282 0.894864
vt 0.154047 0.951509
vt 0.199419 0.765306
vt 0.057598 0.763205
vt 0.084879 0.940471
vt 0.048041 0.797208
vt 0.051517 0.964851
vt 0.200799 0.938180
vt 0.061679 0.964160
vt 0.178217 0.941115
vt 0.152917 0.868117
vt 0.151899 0.968143
vt 0.206058 0.764017
vt 0.061881 0.792293
vt 0.084404 0.956563
vt 0.053075 0.951266
vt 0.048999 0.779060
vt 0.187899 0.833343
vt 0.051517 0.964160
vt 0.188024 0.938897
vt 0.184860 0.850004
vt 0.193399 0.856767
vt 0.100270 0.851361
vt 0.195141 0.831019
vt 0.194209 0.959358
vt 0.071537 0.957289
vt 0.078533 0.835653
vt 0.187117 0.813622
vt 0.015004 0.951524
vt 0.069604 0.972408
vt 0.069748 0.821806
vt 0.125596 0.994608
vt 0.069604 0.772557
vt 0.195503 0.763205
vt 0.184545 0.783986
vt 0.016159 0.981150
vt 0.205391 0.807112
vt 0.201610 0.896211
vt 0.098084 0.892401
vt 0.068136 0.871002
vt 0.149325 0.864173
vt 0.078114 0.957962
vt 0.028877 0.932977
vt 0.077997 0.836324
vt 0.078265 0.786653
vt 0.223447 0.892443
vt 0.225798 0.810740
vt 0.164370 0.910847
vt 0.187363 0.897831
vt 0.225593 0.938722
vt 0.149305 0.864601
vt 0.192155 0.774064
vt 0.153491 0.960936
vt 0.024912 0.989883
vt 0.179494 0.815559
vt 0.065860 0.827383
vt 0.194209 0.941115
vt 0.073985 0.821218
vt 0.026794 0.947884
vt 0.096572 0.842753
vt 0.064347 0.770536
vt 0.177462 0.781279
vt 0.065713 0.792363
vt 0.190974 0.858223
vt 0.170508 0.950072
vt 0.100270 0.854215
vt 0.051320 0.839780
vt 0.098084 0.849722
vt 0.084386 0.834834
vt 0.034594 0.932205
vt 0.115581 0.955275
vt 0.035713 0.872326
vt 0.032527 0.986156
vt 0.221917 0.810369
vt 0.074870 0.784845
vt 0.171931 0.949900
vt 0.098084 0.852886
vt 0.060424 0.784771
vt 0.017951 0.992161
vt 0.081450 0.788142
vt 0.219238 0.891241
vt 0.077298 0.973854
vt 0.228060 0.845935
vt 0.069604 0.820694
vt 0.100271 0.840880
vt 0.159029 0.950724
vt 0.080946 0.816559
vt 0.048725 0.797096
vt 0.227159 0.864223
vt 0.174919 0.897529
vt 0.151899 0.911943
vt 0.073467 0.971475
vt 0.121060 0.993849
vt 0.024912 0.948751
vn -0.072133 0.493680 -0.866647
vn 0.231696 -0.644548 -0.728611
vn 0.656883 -0.730549 -0.186557
vn -0.116671 0.516232 -0.848465
vn 0.249312 -0.654182 -0.714066
vn 0.738337 -0.611980 0.283443
vn 0.229331 -0.105665 -0.967596
vn 0.569812 -0.082823 0.817590
vn -0.182836 0.421690 0.888115
vn -0.915806 0.243671 0.319255
vn 0.457111 -0.193654 0.868071
vn -0.557715 0.723073 0.407577
vn -0.458558 0.195925 0.866798
vn 0.199931 -0.454965 -0.867776
vn 0.844367 -0.510131 0.163740
vn 0.697139 -0.384862 0.604878
vn 0.092334 0.028309 -0.995326
vn -0.823457 0.474701 -0.310770
vn -0.899273 0.324919 -0.292805
vn -0.134399 -0.062683 0.988943
vn 0.669432 -0.738876 0.076961
vn 0.782769 -0.525247 0.333749
vn 0.037423 0.023677 -0.999019
vn -0.686966 0.677994 0.261536
vn -0.809214 0.527151 -0.259392
vn -0.071241 -0.094669 0.992956
vn 0.448477 -0.172912 -0.876909
vn -0.119381 0.282513 0.951806
vn -0.899686 0.427662 -0.087585
vn -0.143909 -0.044265 0.988600
vn -0.967568 -0.115839 0.224486
vn 0.073197 -0.480768 0.873787
vn 0.877090 -0.392253 0.277222
vn -0.030553 0.172682 -0.984504
vn 0.869525 -0.493359 0.022866
vn -0.475585 0.469744 -0.743747
vn -0.988560 0.149973 -0.016008
vn -0.264303 -0.274096 0.924670
vn -0.925788 0.169824 -0.337752
vn -0.271691 -0.394122 0.877982
vn 0.896177 -0.291236 0.334736
vn 0.082267 0.236670 -0.968101
vn -0.961588 0.251013 -0.111088
vn -0.225679 -0.273976 0.934883
vn 0.513572 0.386699 -0.765969
vn 0.800565 -0.303053 0.516966
vn 0.122614 0.328325 -0.936572
vn -0.699526 0.021329 0.714289
vn -0.932444 -0.320207 -0.167381
vn -0.005083 -0.520943 0.853576
vn -0.926538 -0.085000 -0.366472
vn -0.162522 -0.555475 0.815496
vn 0.894921 -0.125482 0.428218
vn 0.323598 0.410403 -0.852557
vn -0.951518 -0.223237 -0.211611
vn 0.041058 -0.493467 0.868795
vn 0.932211 0.086316 0.351472
vn -0.201786 0.113521 -0.972828
vn 0.857160 -0.192958 0.477539
vn 0.365693 0.440749 -0.819761
vn -0.269685 -0.473400 0.838548
vn 0.268516 -0.706690 0.654590
vn 0.307610 0.809151 -0.500651
vn -0.853273 -0.373685 -0.363709
vn 0.920270 -0.060341 0.386604
vn 0.246468 0.409037 -0.878603
vn -0.580101 0.671593 0.460918
vn -0.594593 0.755962 0.273827
vn 0.868149 -0.459586 0.187342
vn 0.482660 0.159638 0.861136
vn -0.516433 0.809368 -0.279679
vn 0.395679 -0.779908 -0.484955
vn 0.487937 -0.793190 -0.364372
vn -0.207313 0.490640 0.846341
vn -0.391702 0.532781 0.750143
vn 0.779016 -0.626883 -0.012281
vn -0.210509 0.342767 -0.915531
vn 0.171785 -0.526775 -0.832465
vn -0.501871 0.112991 -0.857530
vn -0.501871 0.112991 -0.857530
vn -0.501871 0.112991 -0.857530
vn -0.501871 0.112991 -0.857530
s 1
g body
usemtl CylinderFBXASC046001SG
f 49/51/1 41/136/2 4/119/3 3/146/4
f 41/137/2 43/14/5 62/44/6 69/96/7
s 3
f 42/110/8 45/126/9 74/176/10 8/114/11
s 1
f 44/162/12 49/52/1 3/147/4 2/69/13
s 3
f 47/1/14 48/153/15 52/75/16 6/171/17
f 45/126/9 46/99/18 9/18/19 10/166/20
s 1
f 43/15/5 47/2/21 58/53/22 5/24/23
f 50/31/24 44/162/12 70/74/25 1/90/26
s 3
f 48/153/15 42/111/8 8/115/11 7/142/27
s 1
f 46/100/28 50/32/24 64/93/29 51/103/30
s 3
f 8/116/11 74/177/10 53/155/31 28/40/32
s 1
f 69/97/7 62/45/6 63/121/33 68/25/34
f 3/146/4 4/119/3 24/112/35 23/139/36
f 51/104/30 64/94/29 65/174/37 57/76/38
s 3
f 10/167/20 9/19/19 29/8/39 30/158/40
s 1
f 5/24/23 58/53/22 59/132/41 25/17/42
f 1/90/26 70/74/25 71/151/43 21/83/44
s 3
f 7/142/27 8/115/11 28/41/32 27/64/45
f 6/171/17 52/75/16 54/129/46 26/164/47
s 1
f 2/69/13 3/147/4 23/140/36 22/61/48
f 57/76/38 65/174/37 66/148/49 60/106/50
s 3
f 30/158/40 29/8/39 39/80/51 40/59/52
s 1
f 25/17/42 59/132/41 61/71/53 35/160/54
f 21/84/44 71/152/43 72/123/55 31/56/56
f 23/139/36 24/112/35 34/77/57 33/108/58
s 3
f 26/165/47 54/130/46 56/5/59 36/134/60
s 1
f 22/62/48 23/141/36 33/109/58 32/36/61
s 3
f 27/64/45 28/41/32 38/10/62 37/38/63
f 28/40/32 53/155/31 55/34/64 38/11/62
s 1
f 68/25/34 63/121/33 67/48/65 73/27/66
f 19/88/67 11/67/68 50/31/24 46/101/28
s 3
f 17/43/69 18/22/70 42/111/8 48/153/15
s 1
f 11/67/68 12/42/71 44/162/12 50/31/24
f 15/169/72 16/144/73 47/1/21 43/16/5
s 3
f 20/68/74 19/89/75 46/99/18 45/126/9
f 16/144/76 17/43/69 48/153/15 47/1/14
s 1
f 12/42/71 13/117/77 49/52/1 44/162/12
s 3
f 18/23/70 20/68/74 45/126/9 42/110/8
s 1
f 14/86/78 15/170/72 43/14/5 41/137/2
f 13/118/77 14/87/78 41/136/2 49/51/1
s 3
f 27/65/45 37/39/63 55/35/64 53/156/31
f 53/157/31 74/178/10 7/143/27 27/66/45
f 48/154/15 7/143/27 74/178/10 45/127/9
f 48/153/15 45/128/9 10/168/20 52/75/16
f 54/129/46 52/75/16 10/168/20 30/159/40
f 40/59/52 56/6/59 54/131/46 30/158/40
s off
f 47/3/79 46/101/80 19/88/81 16/145/82
s 1
f 46/102/28 51/105/30 58/54/22 47/4/21
f 57/76/38 59/133/41 58/55/22 51/104/30
f 60/106/50 61/72/53 59/133/41 57/76/38
f 65/175/37 25/17/42 35/160/54 66/149/49
f 65/175/37 64/95/29 5/24/23 25/17/42
s 3
f 46/101/18 47/3/14 6/172/17 9/20/19
s 1
f 43/13/5 50/33/24 1/91/26 62/46/6
f 43/15/5 5/24/23 64/95/29 50/30/24
s 3
f 29/9/39 9/21/19 6/173/17 26/165/47
f 39/81/51 29/9/39 26/165/47 36/134/60
s 1
f 72/124/55 71/151/43 68/26/34 73/28/66
f 67/49/65 63/122/33 21/85/44 31/57/56
f 63/122/33 62/47/6 1/92/26 21/85/44
f 68/26/34 71/151/43 70/74/25 69/98/7
f 41/138/2 44/163/12 2/70/13 4/120/3
f 34/78/57 24/113/35 22/63/48 32/37/61
f 24/113/35 4/120/3 2/70/13 22/63/48
f 60/107/50 66/150/49 35/161/54 61/73/53
f 31/58/56 72/125/55 73/29/66 67/50/65
s 3
f 36/135/60 56/7/59 40/60/52 39/82/51
f 55/35/64 37/39/63 38/12/62
s 1
f 33/109/58 34/79/57 32/36/61
