# This file uses centimeters as units for non-parametric coordinates.

mtllib leftleg3.mtl
g default
v 79.205221 117.196364 -99.871883
v 82.591492 116.629982 -99.267368
v 84.837558 116.046560 -96.792631
v 85.139910 115.669815 -93.402236
v 83.345538 115.642654 -90.381299
v 80.138177 115.975495 -88.883941
v 76.761468 116.537745 -89.451160
v 74.524003 117.128159 -91.989198
v 74.234493 117.505245 -95.382936
v 76.016178 117.530906 -98.390027
v 78.654759 111.264598 -103.299467
v 82.242960 110.677766 -102.521319
v 84.658221 110.052565 -99.677325
v 85.081434 109.610254 -95.698670
v 83.093363 109.513667 -92.043483
v 79.510168 109.821941 -90.309538
v 75.811163 110.416991 -91.159097
v 73.461182 111.054915 -94.119381
v 73.183788 111.500379 -98.130081
v 75.168719 111.585258 -101.679854
v 77.635487 95.872478 -108.486358
v 81.372084 95.288406 -107.687198
v 83.830728 94.663710 -104.818672
v 84.114503 94.234520 -100.954799
v 82.076844 94.163550 -97.559710
v 78.421998 94.480653 -95.953062
v 74.624572 95.066774 -96.768946
v 72.153664 95.694817 -99.667079
v 71.944167 96.125569 -103.546925
v 74.025524 96.193528 -106.916058
v 75.643331 77.903760 -109.945102
v 78.264281 77.549242 -109.335120
v 80.001501 77.147275 -107.297366
v 80.202808 76.849851 -104.615451
v 78.784076 76.771369 -102.311970
v 76.287375 76.941845 -101.265893
v 73.670150 77.295633 -101.879223
v 71.921411 77.699071 -103.912545
v 71.716603 77.997218 -106.591278
v 73.139492 78.075290 -108.895648
v 74.140924 61.054516 -112.808112
v 76.672477 60.653646 -112.302116
v 78.329302 60.222058 -110.366641
v 78.555948 59.924615 -107.717037
v 77.253292 59.875099 -105.321987
v 74.842261 60.092308 -104.095143
v 72.254283 60.493231 -104.545035
v 70.502885 60.924686 -106.529033
v 70.289296 61.221984 -109.261364
v 71.689810 61.271592 -111.659481
v 73.081274 57.415698 -113.687736
v 75.920992 57.198378 -113.141284
v 77.774292 56.859445 -111.001358
v 78.053525 56.528306 -108.060380
v 76.628835 56.331436 -105.378057
v 73.953366 56.344058 -103.964867
v 71.047208 56.561462 -104.419011
v 69.046703 56.900493 -106.610858
v 68.779703 57.231651 -109.677953
v 70.341253 57.428459 -112.384659
vt 0.306263 0.154343
vt 0.313425 0.154503
vt 0.789831 0.154791
vt 0.512120 0.561752
vt 0.487951 0.603716
vt 0.293798 0.205403
vt 0.530105 0.545967
vt 0.487976 0.703756
vt 0.298589 0.095592
vt 0.479554 0.712032
vt 0.516080 0.607906
vt 0.090645 0.670219
vt 0.499474 0.656800
vt 0.795818 0.154194
vt 0.097651 0.622512
vt 0.304060 0.205861
vt 0.520674 0.544556
vt 0.115923 0.766562
vt 0.306532 0.095239
vt 0.812184 0.204282
vt 0.492029 0.655690
vt 0.819197 0.267940
vt 0.315851 0.271060
vt 0.087132 0.624489
vt 0.532915 0.563777
vt 0.507096 0.607646
vt 0.095289 0.604421
vt 0.797419 0.093513
vt 0.501518 0.705046
vt 0.108706 0.767901
vt 0.494514 0.714658
vt 0.111215 0.666072
vt 0.820799 0.202244
vt 0.109763 0.718719
vt 0.827031 0.267389
vt 0.829598 0.248404
vt 0.496360 0.606045
vt 0.085909 0.606342
vt 0.538106 0.546096
vt 0.804194 0.092361
vt 0.126257 0.776238
vt 0.798747 0.105213
vt 0.486230 0.713423
vt 0.792692 0.206740
vt 0.314480 0.206320
vt 0.505566 0.657062
vt 0.102519 0.719927
vt 0.503787 0.559428
vt 0.296111 0.251646
vt 0.107277 0.620348
vt 0.838352 0.246322
vt 0.836456 0.265889
vt 0.314492 0.094896
vt 0.782540 0.095813
vt 0.298330 0.105857
vt 0.482026 0.702139
vt 0.804783 0.103810
vt 0.122701 0.765094
vt 0.118623 0.777207
vt 0.801442 0.206002
vt 0.803252 0.153009
vt 0.305969 0.252157
vt 0.809204 0.250982
vt 0.316058 0.252663
vt 0.513397 0.542403
vt 0.297274 0.269919
vt 0.104165 0.602337
vt 0.844016 0.263991
vt 0.789147 0.094831
vt 0.305469 0.106142
vt 0.312623 0.106437
vt 0.785322 0.106913
vt 0.501242 0.715266
vt 0.110500 0.778035
vt 0.299117 0.154192
vt 0.486074 0.654156
vt 0.116568 0.717383
vt 0.809292 0.151688
vt 0.523201 0.563415
vt 0.818478 0.250179
vt 0.306611 0.270478
vt 0.495421 0.704866
vt 0.791314 0.106398
vt 0.101302 0.668236
vn 0.630677 -0.229611 0.741300
vn 0.080473 -0.243792 0.966483
vn 0.061685 -0.316934 0.946440
vn 0.629232 -0.281627 0.724398
vn 0.529056 0.281130 -0.800666
vn 0.928203 0.091740 -0.360587
vn 0.918890 -0.030243 -0.393353
vn 0.524710 0.117798 -0.843091
vn 0.535131 0.380661 -0.754143
vn 0.936679 0.134604 -0.323287
vn -0.959902 0.240611 -0.143855
vn -0.633950 0.438333 -0.637159
vn -0.636539 0.333817 -0.695258
vn -0.963331 0.179844 -0.199120
vn -0.511863 -0.154511 0.845058
vn -0.532095 -0.224118 0.816484
vn 0.960588 -0.101721 0.258694
vn 0.966262 -0.125632 0.224841
vn -0.061052 0.499555 -0.864128
vn -0.068215 0.371189 -0.926048
vn -0.909933 0.020612 0.414243
vn -0.926422 -0.033289 0.375012
vn 0.067004 -0.322460 0.944209
vn -0.540807 -0.228441 0.809532
vn -0.528345 -0.159098 0.833990
vn 0.073447 -0.245425 0.966629
vn -0.633524 0.207139 -0.745480
vn -0.963213 0.110139 -0.245132
vn 0.963090 -0.186491 0.194108
vn -0.069639 0.208251 -0.975593
vn -0.936430 -0.055952 0.346364
vn 0.640967 -0.301138 0.706029
vn 0.915768 -0.089535 -0.391604
vn 0.956341 -0.203106 0.210143
vn 0.971667 -0.134414 0.194415
vn 0.920183 -0.029893 -0.390347
vn -0.088308 0.126765 -0.987994
vn -0.647688 0.141576 -0.748636
vn -0.929273 -0.033262 0.367893
vn 0.635828 -0.261700 0.726110
vn 0.514570 0.038505 -0.856583
vn -0.968102 0.081260 -0.237015
vn -0.637592 0.216118 -0.739439
vn -0.077399 0.189698 -0.978787
vn -0.154802 0.271082 -0.950027
vn -0.661168 0.356606 -0.660067
vn -0.917738 0.080120 0.389022
vn -0.501591 -0.042156 0.864077
vn 0.677926 -0.178266 0.713188
vn 0.523513 0.096499 -0.846536
vn -0.958515 0.175034 -0.224970
vn 0.122623 -0.143559 0.982015
vn -0.865312 0.305869 0.397087
vn -0.488315 0.176447 0.854643
vn 0.672165 -0.128242 0.729211
vn 0.967511 -0.160771 0.195131
vn 0.466774 0.107492 -0.877820
vn -0.916108 0.365986 -0.163706
vn 0.113923 0.006253 0.993470
vn 0.907454 -0.070932 -0.414120
s 1
g body
usemtl CylinderFBXASC046001SG
f 5/38/1 6/27/2 16/15/3 15/24/4
f 12/48/5 13/4/6 23/37/7 22/5/8
f 2/65/9 3/17/10 13/4/6 12/48/5
f 9/35/11 10/22/12 20/63/13 19/80/14
f 6/27/2 7/67/15 17/50/16 16/15/3
f 3/17/10 4/7/17 14/79/18 13/4/6
f 10/23/12 1/81/19 11/62/20 20/64/13
f 7/68/15 8/52/21 18/36/22 17/51/16
f 4/7/17 5/39/1 15/25/4 14/79/18
f 1/81/19 2/66/9 12/49/5 11/62/20
f 8/52/21 9/35/11 19/80/14 18/36/22
f 26/84/23 27/32/24 37/77/25 36/34/26
f 19/80/14 20/63/13 30/44/27 29/60/28
f 16/15/3 17/50/16 27/32/24 26/84/23
f 13/4/6 14/79/18 24/26/29 23/37/7
f 20/64/13 11/62/20 21/16/30 30/45/27
f 17/51/16 18/36/22 28/20/31 27/33/24
f 14/79/18 15/25/4 25/11/32 24/26/29
f 11/62/20 12/49/5 22/6/8 21/16/30
f 18/36/22 19/80/14 29/60/28 28/20/31
f 15/24/4 16/15/3 26/84/23 25/12/32
f 33/21/33 34/13/34 44/82/35 43/8/36
f 23/37/7 24/26/29 34/13/34 33/21/33
f 30/45/27 21/16/30 31/1/37 40/2/38
f 27/33/24 28/20/31 38/61/39 37/78/25
f 24/26/29 25/11/32 35/46/40 34/13/34
f 21/16/30 22/6/8 32/75/41 31/1/37
f 28/20/31 29/60/28 39/14/42 38/61/39
f 25/12/32 26/84/23 36/34/26 35/47/40
f 22/5/8 23/37/7 33/21/33 32/76/41
f 29/60/28 30/44/27 40/3/38 39/14/42
f 50/71/43 41/70/44 51/19/45 60/53/46
f 40/2/38 31/1/37 41/70/44 50/71/43
f 37/78/25 38/61/39 48/42/47 47/57/48
f 34/13/34 35/46/40 45/29/49 44/82/35
f 31/1/37 32/75/41 42/55/50 41/70/44
f 38/61/39 39/14/42 49/83/51 48/42/47
f 35/47/40 36/34/26 46/18/52 45/30/49
f 32/76/41 33/21/33 43/8/36 42/56/50
f 39/14/42 40/3/38 50/72/43 49/83/51
f 36/34/26 37/77/25 47/58/48 46/18/52
f 47/57/48 48/42/47 58/28/53 57/40/54
f 44/82/35 45/29/49 55/73/55 54/31/56
f 41/70/44 42/55/50 52/9/57 51/19/45
f 48/42/47 49/83/51 59/69/58 58/28/53
f 45/30/49 46/18/52 56/59/59 55/74/55
f 42/56/50 43/8/36 53/43/60 52/10/57
f 49/83/51 50/72/43 60/54/46 59/69/58
f 46/18/52 47/58/48 57/41/54 56/59/59
f 43/8/36 44/82/35 54/31/56 53/43/60
