# This file uses centimeters as units for non-parametric coordinates.

mtllib rightleg4.mtl
g default
v 20.849636 36.508822 -102.708331
v 17.650269 37.337505 -104.231866
v 15.592700 38.307780 -106.478334
v 15.495480 38.962406 -108.786368
v 17.128349 38.836158 -111.297546
v 19.793370 38.180587 -112.500500
v 22.601376 37.312539 -111.986622
v 24.559214 36.400597 -109.869759
v 25.031084 35.786656 -106.868311
v 23.754590 35.723038 -104.176303
v 11.216615 28.103620 -72.909429
v 16.697633 27.523624 -70.960923
v 13.433839 26.720784 -73.332104
v 12.892371 28.148358 -71.185563
v 15.048227 26.471260 -80.700500
v 18.803006 27.510042 -77.377600
v 18.603924 29.033186 -76.290344
v 14.527132 30.098472 -78.049956
v 11.059765 26.822478 -82.791628
v 13.828843 27.107921 -80.644148
v 13.846019 26.769720 -98.455780
v 10.776418 27.080415 -105.073904
v 9.334008 28.140914 -104.811839
v 9.109755 29.539073 -103.941180
v 10.200789 30.898886 -102.677230
v 14.509556 32.128348 -99.454156
v 18.797997 31.588507 -97.326293
v 21.439185 30.769909 -91.721654
v 21.689341 28.856429 -92.749683
v 18.146387 27.339315 -95.253912
v 11.836768 26.032744 -88.025390
v 7.454009 26.384160 -90.791613
v 4.622201 27.484132 -91.845594
v 4.423157 28.895997 -90.780996
v 6.932868 30.043889 -88.003886
v 11.192639 30.589073 -84.579241
v 15.575497 30.235480 -81.812159
v 19.617196 29.093541 -80.619699
v 19.816268 27.721451 -81.686082
v 16.096554 26.567550 -84.601294
v 13.490109 29.378524 -79.030518
v 10.641064 29.704330 -80.807362
v 9.095722 29.698612 -82.366117
v 6.502158 29.442009 -84.393317
v 6.819449 27.167187 -86.001407
v 9.487888 27.050802 -84.180941
v 4.806261 29.954416 -84.048093
v 2.296550 28.745794 -86.769169
v 2.495598 27.271250 -87.873086
v 5.327427 26.233447 -86.653859
v 20.693139 25.672655 -115.034821
v 21.781029 32.554472 -112.662609
v 18.930511 33.835237 -113.371496
v 16.384927 26.552513 -116.140781
v 16.152001 35.532492 -111.865310
v 11.989384 28.343773 -113.994502
v 14.661814 36.976977 -108.428133
v 10.540420 30.872929 -108.336713
v 15.643929 37.101536 -106.054703
v 11.459914 32.463162 -103.027186
v 18.160531 36.487947 -103.802791
v 14.681874 33.505527 -100.858589
v 21.101373 35.658289 -102.131880
v 18.924534 32.852735 -99.584565
v 23.612722 33.744880 -103.631275
v 22.504857 30.361317 -100.966532
v 24.618994 32.465886 -106.550800
v 24.145488 27.872617 -103.958245
v 23.915846 32.045460 -110.113541
v 23.193092 26.038661 -110.952414
v 11.693591 26.846071 -74.800232
v 16.904508 26.978283 -71.780884
v 8.772117 26.820202 -76.143455
v 8.182481 28.374651 -73.806286
v 7.297763 26.810309 -78.315358
v 6.568634 28.732086 -75.420818
v 3.872872 28.650882 -76.674358
v 3.667647 27.049726 -79.570022
v 2.697252 28.477334 -77.580182
v 2.063684 27.538424 -80.053039
v 1.693001 28.083718 -79.293005
v 4.596902 27.095720 -78.952990
v 2.105571 26.538128 -69.320152
v 1.638099 27.770458 -67.467146
v 0.299207 25.485853 -74.018497
v -0.671199 26.913501 -72.028656
v 5.661946 27.666195 -64.304219
v 8.696078 27.395221 -63.407376
v 9.173032 26.137651 -65.298170
v 6.251548 26.111823 -66.641395
v 11.670951 28.158605 -65.908552
v 14.158262 27.104480 -65.123763
v 4.407339 26.311505 -68.628352
v 12.259867 25.807832 -67.562605
v 14.466700 25.821769 -67.099077
v 3.829527 27.834778 -66.337975
v -1.675460 26.519869 -73.741492
v -1.304810 25.974595 -74.501526
v 15.169160 26.849558 -72.556492
v 13.363292 25.814824 -67.330841
v 12.846848 26.264328 -70.447355
v 15.685594 26.400038 -69.439979
v 14.266234 26.332186 -69.943671
v 7.179018 27.530710 -63.855803
v 7.712290 26.124737 -65.969782
v 5.956747 26.889009 -65.472809
v 8.934555 26.766464 -64.352770
v 7.445662 26.827719 -64.912796
v 1.871827 27.154270 -68.393647
v 3.256465 26.424833 -68.974251
v 2.733815 27.802639 -66.902555
v 4.118426 27.073140 -67.483163
v 2.995147 27.113710 -67.938404
v -0.186004 26.199682 -73.023577
v -1.173333 26.716698 -72.885072
v -1.490132 26.247219 -74.121512
v -0.502823 25.730226 -74.260013
v -0.838070 26.223457 -73.572546
v 21.404376 38.930875 -103.093377
v 18.532254 39.915235 -103.721237
v 16.501905 40.905501 -105.693251
v 16.193185 41.455378 -108.498619
v 17.750380 41.362379 -111.126347
v 20.497111 40.688581 -112.379622
v 23.387942 39.784853 -111.786489
v 25.315143 38.859940 -109.555052
v 25.550559 38.312300 -106.580068
v 24.091931 38.302163 -104.195387
v 20.956285 29.611742 -115.896374
v 17.504155 31.126691 -116.560829
v 14.495738 32.962962 -114.542625
v 13.344271 34.771331 -107.950372
v 14.378133 35.195071 -105.085050
v 16.993130 34.873828 -102.334375
v 20.205778 34.121203 -100.353778
v 23.032202 31.582585 -102.306079
v 24.362314 29.873250 -105.864231
v 23.494950 29.003623 -112.821399
vt 0.452476 0.014439
vt 0.504975 0.841836
vt 0.578499 0.972903
vt 0.528346 0.807264
vt 0.569813 0.977931
vt 0.741043 0.842651
vt 0.580379 0.937408
vt 0.493420 0.808861
vt 0.395577 0.940220
vt 0.635865 0.959828
vt 0.402053 0.962481
vt 0.668252 0.005845
vt 0.590152 0.020183
vt 0.589246 0.044351
vt 0.267057 0.819675
vt 0.702930 0.518388
vt 0.500196 0.796427
vt 0.507615 0.851508
vt 0.555230 0.990555
vt 0.578500 0.982848
vt 0.530274 0.806355
vt 0.530574 0.842759
vt 0.814955 0.558058
vt 0.705801 0.533370
vt 0.548648 0.891915
vt 0.494115 0.824814
vt 0.483142 0.926495
vt 0.264490 0.810665
vt 0.357940 0.925820
vt 0.499265 0.793901
vt 0.429880 0.935132
vt 0.742696 0.835053
vt 0.505859 0.941919
vt 0.447072 0.039053
vt 0.602924 0.035145
vt 0.412668 0.917799
vt 0.589793 0.967745
vt 0.551355 0.933942
vt 0.358082 0.920529
vt 0.495302 0.794944
vt 0.640194 0.939916
vt 0.512153 0.800498
vt 0.527169 0.920218
vt 0.699607 0.543979
vt 0.642162 0.967366
vt 0.519564 0.826981
vt 0.516550 0.794521
vt 0.363653 0.947168
vt 0.813065 0.608398
vt 0.589917 0.039249
vt 0.598219 0.043736
vt 0.498843 0.918383
vt 0.719854 0.532120
vt 0.264086 0.835309
vt 0.513343 0.794773
vt 0.363061 0.943122
vt 0.495415 0.850698
vt 0.776248 0.540435
vt 0.531842 0.804466
vt 0.683686 0.000821
vt 0.426266 0.965235
vt 0.649819 0.008141
vt 0.261709 0.831431
vt 0.715728 0.528107
vt 0.532653 0.881148
vt 0.518832 0.880395
vt 0.435721 0.952013
vt 0.806042 0.552209
vt 0.578499 0.939186
vt 0.703031 0.511782
vt 0.802663 0.541700
vt 0.391568 0.903285
vt 0.591083 0.033210
vt 0.410810 0.902851
vt 0.789280 0.536674
vt 0.514464 0.997562
vt 0.357798 0.931110
vt 0.503229 0.792857
vt 0.635204 0.933942
vt 0.362470 0.939076
vt 0.510136 0.795025
vt 0.693633 0.529308
vt 0.571244 0.960147
vt 0.532287 0.824965
vt 0.816656 0.603306
vt 0.518181 0.798949
vt 0.605465 0.023132
vt 0.494222 0.955383
vt 0.448437 0.032637
vt 0.258787 0.825766
vt 0.712705 0.522330
vt 0.515167 0.799724
vt 0.509098 0.952232
vt 0.416892 0.932840
vt 0.421216 0.954769
vt 0.578499 0.949343
vt 0.604343 0.014240
vt 0.490615 0.962224
vt 0.580414 0.945730
vt 0.496224 0.816487
vt 0.744943 0.536920
vt 0.507357 0.880128
vt 0.598373 0.050089
vt 0.694671 0.511410
vt 0.551340 0.961060
vt 0.392181 0.922765
vt 0.507720 0.840494
vt 0.554193 0.981149
vt 0.505286 0.798442
vt 0.519048 0.991183
vt 0.735456 0.844447
vt 0.813185 0.545656
vt 0.487919 0.810895
vt 0.800542 0.543471
vt 0.489203 0.825516
vt 0.397071 0.950433
vt 0.811480 0.581699
vt 0.549470 0.922791
vt 0.454633 0.001068
vt 0.601437 0.041178
vt 0.456595 0.034666
vt 0.582109 0.043509
vt 0.711406 0.538775
vt 0.519438 0.911916
vt 0.514255 0.797248
vt 0.547131 0.977018
vt 0.414032 0.921888
vt 0.529621 0.804583
vt 0.567109 0.944098
vt 0.534928 0.841952
vt 0.693943 0.535771
vt 0.602552 0.009331
vt 0.551572 0.890016
vt 0.738249 0.843549
vt 0.490670 0.809878
vt 0.535384 0.853476
vt 0.816656 0.545656
vt 0.567109 0.933942
vt 0.271900 0.807289
vt 0.605095 0.047929
vt 0.442756 0.011177
vt 0.684769 0.534407
vt 0.585261 0.948726
vt 0.388482 0.915667
vt 0.516932 0.841512
vt 0.517671 0.947047
vt 0.496967 0.799463
vt 0.555230 0.939087
vt 0.532203 0.805446
vt 0.682603 0.000000
vt 0.504929 0.825094
vt 0.555215 0.966205
vt 0.666086 0.004203
vt 0.536144 0.823147
vt 0.449872 0.020507
vt 0.491847 0.943972
vt 0.611497 0.025556
vt 0.285291 0.828122
vt 0.693680 0.517786
vt 0.496135 0.797204
vt 0.553293 0.936514
vt 0.703950 0.527174
vt 0.637699 0.936929
vt 0.511144 0.797762
vt 0.808492 0.562047
vt 0.423570 0.949569
vt 0.542756 0.841034
vt 0.647389 0.003918
vt 0.485869 0.942381
vt 0.492392 0.817346
vt 0.521787 0.853075
vt 0.742696 0.820585
vt 0.519048 0.933942
vt 0.583260 0.049740
vt 0.455144 0.041127
vt 0.709841 0.510269
vt 0.256571 0.813838
vt 0.580450 0.954053
vt 0.499027 0.824113
vt 0.735817 0.839916
vt 0.369530 0.905043
vt 0.818342 0.541496
vt 0.378745 0.962478
vt 0.531481 0.803487
vt 0.684769 0.001642
vt 0.513571 0.970615
vt 0.391896 0.933345
vt 0.399029 0.956805
vt 0.576152 0.965523
vt 0.582063 0.014817
vt 0.556020 0.912345
vt 0.467671 0.005434
vt 0.606814 0.041875
vt 0.275977 0.812442
vt 0.609738 0.039916
vt 0.275098 0.815138
vt 0.440272 0.030677
vt 0.686890 0.515476
vt 0.516756 0.994372
vt 0.504257 0.795650
vt 0.425009 0.903911
vt 0.778545 0.536075
vt 0.377233 0.959641
vt 0.528969 0.802810
vt 0.420014 0.939292
vt 0.735456 0.833516
vt 0.633765 0.978081
vt 0.270400 0.825060
vt 0.441510 0.017609
vt 0.685666 0.528136
vt 0.607308 0.018750
vt 0.489512 0.958074
vt 0.806863 0.544564
vt 0.488561 0.818205
vt 0.640330 0.009851
vt 0.440771 0.962478
vt 0.590033 0.050781
vt 0.461684 0.019568
vt 0.580774 0.028736
vt 0.492070 0.840065
vt 0.786984 0.541034
vt 0.375721 0.956803
vt 0.574721 0.983308
vt 0.526456 0.802134
vt 0.741043 0.835053
vt 0.587499 0.933942
vt 0.370012 0.913952
vt 0.513248 0.824073
vt 0.518155 0.964236
vt 0.527172 0.825026
vt 0.816012 0.575274
vt 0.458451 0.025318
vt 0.580191 0.034538
vt 0.266920 0.816730
vt 0.491780 0.929214
vt 0.274521 0.829790
vt 0.257636 0.820340
vt 0.711141 0.516949
vt 0.517366 0.796735
vt 0.814860 0.605852
vt 0.425480 0.918284
vt 0.544367 0.984201
vt 0.589793 0.977690
vt 0.572267 0.980619
vt 0.527401 0.804699
vt 0.522296 0.842515
vt 0.735456 0.824707
vt 0.642162 0.982420
vt 0.611759 0.033876
vt 0.278936 0.820388
vt 0.538463 0.925946
vt 0.442798 0.000000
vt 0.687837 0.545656
vt 0.465778 0.910781
vt 0.746886 0.530983
vt 0.501127 0.798953
vt 0.543213 0.852559
vt 0.637900 0.005628
vt 0.687954 0.509296
vt 0.439001 0.037053
vn -0.064896 0.152907 -0.986107
vn 0.497121 -0.002310 -0.867678
vn 0.601040 0.300548 -0.740555
vn 0.152939 0.501712 -0.851407
vn -0.356785 0.787448 0.502623
vn -0.141374 0.982892 0.118054
vn 0.136147 0.981298 0.136083
vn 0.207171 0.854559 0.476245
vn -0.810149 -0.256945 -0.526913
vn -0.729755 -0.633709 -0.256651
vn -0.842194 0.492661 -0.219076
vn -0.874861 0.411339 -0.255772
vn 0.028167 -0.999517 0.013110
vn 0.391801 -0.866979 0.307961
vn -0.622373 -0.781420 -0.045104
vn -0.128150 -0.990692 -0.045911
vn 0.476108 0.862755 0.170217
vn 0.857568 0.440366 0.265810
vn -0.426573 0.904428 -0.006765
vn -0.672943 0.707325 0.216425
vn 0.681345 -0.723771 0.109200
vn 0.582341 -0.792891 0.179450
vn 0.305440 -0.951867 0.025628
vn 0.208875 -0.976297 0.056705
vn 0.009661 -0.999952 0.001435
vn 0.057123 -0.983627 -0.170922
vn -0.241798 -0.967503 -0.073964
vn -0.721110 -0.626480 -0.295842
vn -0.240845 -0.900108 -0.363043
vn 0.666665 -0.741517 0.075563
vn 0.419072 -0.903717 0.087605
vn -0.462069 -0.874864 -0.145277
vn 0.211931 -0.977132 0.017279
vn -0.126760 0.983022 0.132661
vn 0.048933 0.987592 0.149222
vn -0.625692 0.755954 -0.192467
vn 0.447318 0.878368 0.168453
vn -0.258949 0.964236 0.056523
vn -0.682587 0.727878 -0.065332
vn -0.682019 0.718997 -0.133766
vn 0.498839 0.817988 0.286455
vn 0.417831 -0.871354 0.257216
vn 0.423696 -0.901020 0.092978
vn -0.535752 -0.816013 -0.217010
vn -0.612062 -0.788703 -0.057677
vn 0.480865 0.774238 0.411490
vn 0.444182 -0.860126 0.250769
vn 0.496507 0.772368 0.396141
vn -0.585226 0.807627 -0.072446
vn 0.532353 0.807303 0.254680
vn -0.622254 -0.756743 -0.200351
vn 0.514805 0.101005 -0.851336
vn -0.054605 0.279079 -0.958714
vn -0.574874 0.500050 -0.647666
vn -0.784618 0.591391 -0.186095
vn -0.629735 0.734055 0.254159
vn -0.293336 0.781139 0.551159
vn 0.288997 0.561481 0.775384
vn 0.833205 0.160271 0.529229
vn 0.995780 -0.089629 0.019724
vn 0.905821 -0.038548 -0.421903
vn -0.628086 0.775942 -0.058506
vn 0.502351 0.747033 0.435414
vn -0.659183 0.751899 -0.011199
vn 0.502935 -0.852431 0.142887
vn -0.522272 0.852638 0.015477
vn 0.399634 0.871638 0.283795
vn 0.262863 0.940805 0.213982
vn 0.936238 -0.133758 0.324909
vn 0.660295 -0.728362 0.183027
vn -0.526603 0.849311 -0.036868
vn -0.436253 0.898472 0.049302
vn 0.233901 0.863779 0.446292
vn 0.582148 -0.802558 0.130398
vn 0.022376 -0.999316 -0.029440
vn -0.567161 -0.803006 -0.183057
vn -0.978181 -0.088261 -0.188075
vn -0.171141 0.982646 0.071542
vn -0.511436 0.858481 -0.037986
vn -0.589305 -0.778445 -0.216200
vn -0.665326 -0.725784 -0.174868
vn -0.439062 0.895375 0.074349
vn 0.424771 0.838901 0.340315
vn 0.485598 -0.865736 0.121222
vn 0.462208 0.853381 0.241049
vn 0.721426 -0.658003 0.215817
vn -0.568926 -0.808516 -0.150414
vn 0.156453 -0.987681 -0.002961
vn -0.231805 -0.835936 0.497471
vn -0.085817 0.989799 0.113724
vn -0.297603 0.953207 0.053189
vn -0.972591 -0.126544 -0.195074
vn -0.376789 -0.829822 0.411614
vn -0.898148 0.002323 -0.439688
vn -0.222626 -0.836724 0.500331
vn 0.935463 -0.135798 0.326295
vn -0.222209 0.942456 0.249798
vn -0.865737 -0.500172 0.018087
vn -0.198046 -0.904492 0.377720
vn 0.444005 -0.771879 0.455042
vn 0.313361 0.827377 0.466103
vn -0.873062 -0.415888 -0.254559
vn 0.676630 -0.693415 0.247683
vn -0.187423 -0.929393 -0.317965
vn -0.580297 -0.648993 -0.492000
vn 0.701442 -0.685619 0.194695
vn 0.230872 0.957402 0.173436
vn -0.653865 -0.733880 -0.184068
vn 0.835500 -0.163347 0.524650
vn -0.090513 -0.994854 -0.045535
vn 0.049942 0.990221 0.130265
vn 0.103278 -0.981904 -0.158739
vn -0.696299 0.540977 0.471712
vn -0.350712 0.649715 0.674442
vn -0.558048 0.093939 0.824475
vn -0.877288 0.199226 0.436663
vn 0.087863 0.151235 0.984585
vn 0.347339 0.527680 0.775184
vn 0.769179 0.003646 0.639024
vn 0.847017 0.113468 0.519315
vn 0.986688 -0.147809 0.067810
vn 0.996453 -0.073874 0.040295
vn 0.875153 -0.129060 -0.466317
vn 0.930466 -0.003329 -0.366363
vn -0.596351 0.257133 -0.760426
vn -0.496959 0.553187 -0.668592
vn -0.911842 0.297225 -0.283198
vn -0.823106 0.516668 -0.235691
vn 0.029686 0.037735 0.998847
vn -0.517569 0.067719 0.852958
vn -0.851774 0.159526 0.499031
vn -0.932949 0.282363 -0.223332
vn -0.623384 0.216581 -0.751322
vn -0.098218 0.083096 -0.991690
vn 0.469999 -0.074483 -0.879519
vn 0.871362 -0.195974 -0.449802
vn 0.966642 -0.210784 0.145512
vn 0.670613 -0.086993 0.736689
s 1
g body
usemtl CylinderFBXASC046001SG
f 6/89/1 7/197/2 52/209/3 53/155/4
f 62/156/5 26/169/6 27/27/7 64/235/8
f 56/190/9 23/132/10 24/97/11 58/13/12
f 31/171/13 46/246/14 45/22/15 32/136/16
f 64/235/8 27/27/7 28/254/17 66/52/18
f 58/13/12 24/97/11 25/211/19 60/87/20
f 66/53/18 28/255/17 29/101/21 68/123/22
f 60/88/20 25/212/19 26/169/6 62/156/5
f 70/43/23 30/66/24 21/65/25 51/251/26
f 68/124/22 29/102/21 30/66/24 70/43/23
f 22/25/27 32/136/16 33/257/28 23/133/10
f 54/118/29 22/25/27 23/133/10 56/191/9
f 39/57/30 16/220/31 15/2/32 40/18/33
f 29/102/21 39/57/30 40/18/33 30/66/24
f 26/169/6 36/31/34 37/241/35 27/27/7
f 23/132/10 33/258/28 34/215/36 24/97/11
f 30/66/24 40/18/33 31/171/13 21/65/25
f 27/27/7 37/241/35 38/201/37 28/254/17
f 24/98/11 34/216/36 35/67/38 25/212/19
f 21/65/25 31/171/13 32/136/16 22/25/27
f 28/255/17 38/202/37 39/58/30 29/101/21
f 25/212/19 35/67/38 36/31/34 26/169/6
f 32/137/16 45/23/15 44/165/39 35/68/38
f 34/216/36 48/61/40 47/95/41 35/67/38
f 20/107/42 71/151/43 73/228/44 19/145/45
f 37/242/35 41/126/46 20/108/42 40/19/33
f 35/69/38 47/96/41 50/129/47 32/138/16
f 35/67/38 44/166/39 43/205/48 36/31/34
f 36/32/34 43/206/48 46/247/14 31/172/13
f 44/166/39 77/116/49 76/9/50 43/205/48
f 32/136/16 50/130/47 49/167/51 33/257/28
f 33/258/28 49/168/51 48/62/40 34/215/36
f 129/141/52 51/252/26 54/119/29 130/1/53
f 130/1/53 54/119/29 56/192/9 131/218/54
f 131/219/54 56/190/9 58/13/12 132/73/55
f 132/73/55 58/13/12 60/87/20 133/35/56
f 133/35/56 60/87/20 62/157/5 134/249/57
f 134/250/57 62/158/5 64/236/8 135/208/58
f 135/208/58 64/236/8 66/54/18 136/63/59
f 136/64/59 66/53/18 68/123/22 137/24/60
f 137/24/60 68/123/22 70/44/23 138/131/61
f 138/131/61 70/44/23 51/253/26 129/142/52
f 51/251/26 21/65/25 22/25/27 54/118/29
f 48/61/40 81/11/62 79/188/63 47/95/41
f 31/173/13 19/146/45 42/93/64 36/33/34
f 40/18/33 20/107/42 19/145/45 31/171/13
f 36/31/34 42/94/64 41/127/46 37/241/35
f 43/207/48 76/10/50 75/45/65 46/248/14
f 37/241/35 18/36/66 17/74/67 38/201/37
f 40/20/33 15/3/32 18/37/66 37/243/35
f 38/202/37 17/75/67 16/221/31 39/58/30
f 76/10/50 96/79/68 112/163/69 93/41/70 75/45/65
f 81/11/62 97/183/71 115/203/72 86/222/73 79/188/63
f 71/151/43 89/147/74 105/256/75 90/109/76 73/228/44
f 73/229/44 90/110/76 106/199/77 87/76/78 74/186/79
f 46/246/14 75/46/65 82/230/80 45/22/15
f 19/146/45 73/229/44 74/186/79 42/93/64
f 15/3/32 13/178/81 14/143/82 18/37/66
f 45/23/15 82/231/80 77/117/49 44/165/39
f 17/75/67 12/71/83 72/114/84 16/221/31
f 41/126/46 11/105/85 71/152/43 20/108/42
f 47/96/41 79/189/63 78/83/86 50/129/47
f 18/36/66 14/144/82 12/72/83 17/74/67
f 49/168/51 80/153/87 81/12/62 48/62/40
f 42/94/64 74/187/79 11/106/85 41/127/46
f 16/220/31 72/115/84 99/26/88 13/179/81 15/2/32
f 50/130/47 78/84/86 80/154/87 49/167/51
f 113/125/89 111/55/90 84/47/91 109/239/92
f 118/128/93 115/204/72 97/184/71 116/59/94
f 108/17/95 105/256/75 89/147/74 107/160/96
f 91/225/97 94/6/98 100/134/99 95/111/100 92/180/101
f 13/178/81 101/99/102 94/7/98 91/226/97 14/143/82
f 14/144/82 91/227/97 92/181/101 12/72/83
f 78/84/86 85/4/103 117/21/104 98/149/105 80/154/87
f 12/71/83 92/182/101 95/112/100 102/213/106 72/114/84
f 77/116/49 84/48/91 111/56/90 96/80/68 76/9/50
f 11/105/85 88/38/107 107/161/96 89/148/74 71/152/43
f 82/231/80 83/85/108 109/240/92 84/49/91 77/117/49
f 80/153/87 98/150/105 116/60/94 97/185/71 81/12/62
f 79/189/63 86/223/73 114/244/109 85/5/103 78/83/86
f 75/46/65 93/42/70 110/92/110 83/86/108 82/230/80
f 74/187/79 87/77/78 104/29/111 88/39/107 11/106/85
f 103/170/112 100/135/99 94/8/98 101/100/102
f 59/120/113 61/195/114 2/193/115 3/51/116
f 1/234/117 2/194/115 61/196/114 63/15/118
f 10/237/119 1/234/117 63/15/118 65/90/120
f 9/16/121 10/238/119 65/91/120 67/162/122
f 8/159/123 9/16/121 67/162/122 69/82/124
f 7/198/2 8/159/123 69/82/124 52/210/3
f 5/121/125 6/89/1 53/155/4 55/232/126
f 4/14/127 5/122/125 55/233/126 57/50/128
f 3/51/116 4/14/127 57/50/128 59/120/113
f 102/214/106 95/113/100 100/135/99 103/170/112
f 72/115/84 102/214/106 103/170/112 99/26/88
f 99/26/88 103/170/112 101/100/102 13/179/81
f 106/200/77 90/109/76 105/256/75 108/17/95
f 87/78/78 106/200/77 108/17/95 104/30/111
f 104/30/111 108/17/95 107/160/96 88/40/107
f 112/164/69 96/81/68 111/55/90 113/125/89
f 93/42/70 112/164/69 113/125/89 110/92/110
f 110/92/110 113/125/89 109/239/92 83/86/108
f 114/245/109 86/224/73 115/204/72 118/128/93
f 85/4/103 114/245/109 118/128/93 117/21/104
f 117/21/104 118/128/93 116/59/94 98/149/105
f 2/194/115 1/234/117 119/28/129 120/139/130
f 3/51/116 2/193/115 120/140/130 121/103/131
f 4/14/127 3/51/116 121/103/131 122/217/132
f 5/122/125 4/14/127 122/217/132 123/174/133
f 6/89/1 5/121/125 123/175/133 124/34/134
f 7/197/2 6/89/1 124/34/134 125/260/135
f 8/159/123 7/198/2 125/259/135 126/104/136
f 9/16/121 8/159/123 126/104/136 127/70/137
f 10/238/119 9/16/121 127/70/137 128/176/138
f 1/234/117 10/237/119 128/177/138 119/28/129
f 53/155/4 52/209/3 129/141/52 130/1/53
f 55/232/126 53/155/4 130/1/53 131/218/54
f 57/50/128 55/233/126 131/219/54 132/73/55
f 59/120/113 57/50/128 132/73/55 133/35/56
f 61/195/114 59/120/113 133/35/56 134/249/57
f 63/15/118 61/196/114 134/250/57 135/208/58
f 65/90/120 63/15/118 135/208/58 136/63/59
f 67/162/122 65/91/120 136/64/59 137/24/60
f 69/82/124 67/162/122 137/24/60 138/131/61
f 52/210/3 69/82/124 138/131/61 129/142/52
