# This file uses centimeters as units for non-parametric coordinates.

mtllib rightleg3.mtl
g default
v 28.328804 115.866623 -94.529712
v 24.912926 115.484477 -95.391032
v 22.640841 115.479879 -98.024895
v 22.387642 115.857913 -101.428022
v 24.250043 116.474164 -104.300530
v 27.510950 117.093165 -105.544806
v 30.922452 117.478546 -104.685391
v 33.182314 117.483055 -102.050640
v 33.435512 117.105027 -98.647508
v 31.584893 116.487911 -95.775212
v 26.913905 109.516580 -94.137175
v 23.139500 109.149470 -95.157629
v 20.571843 109.197428 -98.261280
v 20.273686 109.642580 -102.268693
v 22.358917 110.314897 -105.649176
v 25.949050 110.957140 -107.105439
v 29.672750 111.323976 -106.081244
v 32.189907 111.275774 -102.973869
v 32.488063 110.830613 -98.966448
v 30.453337 110.158550 -95.589699
v 25.691104 93.760180 -96.032996
v 21.749700 93.392579 -96.995901
v 19.084816 93.430364 -99.975182
v 18.797344 93.859564 -103.838980
v 20.997089 94.516238 -107.111445
v 24.760825 95.149098 -108.536489
v 28.656331 95.516441 -107.570199
v 31.242475 95.478213 -104.585113
v 31.529960 95.049017 -100.721315
v 29.408926 94.392793 -97.454653
v 22.869737 74.219592 -99.944046
v 20.275245 74.195413 -100.596535
v 18.551998 74.367986 -102.655723
v 18.352633 74.665640 -105.335309
v 19.753302 74.974709 -107.611760
v 22.224576 75.182833 -108.615339
v 24.845959 75.212923 -107.964194
v 26.628955 75.049053 -105.908489
v 26.828321 74.751385 -103.228904
v 25.367879 74.433664 -100.948968
v 22.217045 53.892993 -102.109164
v 19.606500 54.305572 -102.707267
v 17.870962 54.758683 -104.733618
v 17.671615 55.129976 -107.418333
v 19.084554 55.244542 -109.732785
v 21.571874 55.058476 -110.791424
v 24.184491 54.675959 -110.191422
v 25.923437 54.232863 -108.164015
v 26.122835 53.879804 -105.483826
v 24.706428 53.744886 -103.171001
v 22.368663 49.378715 -101.996336
v 19.500336 50.084604 -102.636732
v 17.590433 50.774683 -104.879319
v 17.368597 51.260029 -107.875960
v 18.919585 51.269087 -110.473270
v 21.650811 50.898542 -111.687002
v 24.518871 50.305675 -111.055544
v 26.428465 49.641315 -108.817672
v 26.650297 49.109623 -105.818182
v 25.099628 49.018317 -103.214491
v 21.404376 38.930875 -103.093377
v 18.532254 39.915235 -103.721237
v 16.501905 40.905501 -105.693251
v 16.193185 41.455378 -108.498619
v 17.750380 41.362379 -111.126347
v 20.497111 40.688581 -112.379622
v 23.387942 39.784853 -111.786489
v 25.315143 38.859940 -109.555052
v 25.550559 38.312300 -106.580068
v 24.091931 38.302163 -104.195387
vt 0.448746 0.238972
vt 0.244505 0.658844
vt 0.615062 0.260569
vt 0.585141 0.074024
vt 0.453987 0.065595
vt 0.447329 0.075582
vt 0.259936 0.785768
vt 0.699986 0.352367
vt 0.604804 0.140095
vt 0.264490 0.810665
vt 0.720479 0.289527
vt 0.223764 0.593954
vt 0.447072 0.039053
vt 0.458867 0.236620
vt 0.594343 0.244849
vt 0.446194 0.257576
vt 0.695758 0.485075
vt 0.247212 0.716067
vt 0.712735 0.412267
vt 0.587031 0.084304
vt 0.454510 0.075988
vt 0.591872 0.074486
vt 0.437664 0.194964
vt 0.691158 0.352637
vt 0.450579 0.134249
vt 0.712817 0.288486
vt 0.703031 0.511782
vt 0.701674 0.306205
vt 0.455359 0.255313
vt 0.598032 0.263056
vt 0.689022 0.483442
vt 0.438099 0.063224
vt 0.706684 0.411940
vt 0.696689 0.472397
vt 0.600212 0.073794
vt 0.719522 0.353898
vt 0.233561 0.658038
vt 0.591352 0.141534
vt 0.457598 0.133305
vt 0.598373 0.050089
vt 0.623691 0.242415
vt 0.248687 0.613563
vt 0.694671 0.511410
vt 0.692521 0.306477
vt 0.438789 0.241325
vt 0.252035 0.788110
vt 0.710909 0.484415
vt 0.266310 0.772901
vt 0.606654 0.082677
vt 0.690618 0.471354
vt 0.440158 0.075204
vt 0.599866 0.196788
vt 0.710820 0.352849
vt 0.699170 0.411606
vt 0.271900 0.807289
vt 0.605095 0.047929
vt 0.238730 0.612907
vt 0.721939 0.307785
vt 0.228259 0.612050
vt 0.622954 0.260989
vt 0.242412 0.595577
vt 0.704118 0.485446
vt 0.259520 0.774483
vt 0.252285 0.775919
vt 0.710289 0.472229
vt 0.610675 0.195892
vt 0.261363 0.715762
vt 0.610976 0.139907
vt 0.443501 0.135225
vt 0.693064 0.411392
vt 0.583260 0.049740
vt 0.455144 0.041127
vt 0.603205 0.243013
vt 0.709841 0.510269
vt 0.256571 0.813838
vt 0.712911 0.306704
vt 0.233363 0.594855
vt 0.593049 0.084321
vt 0.704203 0.472731
vt 0.448109 0.192583
vt 0.254544 0.715985
vt 0.703275 0.288062
vt 0.590033 0.050781
vt 0.614415 0.242084
vt 0.619631 0.196250
vt 0.254944 0.659457
vt 0.605542 0.261358
vt 0.446035 0.064405
vt 0.600544 0.083699
vt 0.267351 0.783283
vt 0.606976 0.072213
vt 0.591335 0.198597
vt 0.458704 0.190203
vt 0.597308 0.140717
vt 0.437064 0.259850
vt 0.695495 0.288414
vt 0.687954 0.509296
vt 0.439001 0.037053
vn -0.610247 0.344090 -0.713583
vn -0.019291 0.244891 -0.969359
vn -0.066977 0.144040 -0.987303
vn -0.639099 0.184448 -0.746680
vn -0.520030 0.006609 0.854123
vn -0.913961 0.102586 0.392621
vn -0.921834 0.006298 0.387532
vn -0.517194 -0.087818 0.851351
vn -0.493951 0.170040 0.852701
vn -0.875925 0.276362 0.395448
vn 0.971038 -0.152113 0.184246
vn 0.704226 -0.107819 0.701741
vn 0.655765 -0.117243 0.745806
vn 0.969637 -0.104500 0.221098
vn 0.592087 0.059529 -0.803672
vn 0.537661 0.059076 -0.841089
vn -0.919721 0.341748 -0.193188
vn -0.959751 0.170952 -0.222829
vn 0.126538 0.026900 0.991597
vn 0.080415 -0.076084 0.993853
vn 0.931063 -0.092432 -0.352956
vn 0.925071 -0.037961 -0.377893
vn -0.060609 0.051969 -0.996808
vn 0.535529 -0.020692 -0.844263
vn 0.517904 -0.010869 -0.855370
vn -0.078767 0.057335 -0.995243
vn 0.652791 -0.195766 0.731806
vn 0.962695 -0.165712 0.213910
vn -0.968359 0.075760 -0.237784
vn 0.086617 -0.167842 0.982001
vn 0.918262 -0.099372 -0.383302
vn -0.637454 0.091731 -0.765009
vn -0.925018 -0.017763 0.379508
vn -0.970859 0.049892 -0.234400
vn -0.971204 0.065940 -0.228942
vn -0.923015 0.001475 0.384760
vn 0.070278 -0.161255 0.984407
vn 0.638214 -0.187881 0.746582
vn 0.914734 -0.096486 -0.392368
vn -0.647693 0.079876 -0.757703
vn -0.527490 -0.096794 0.844029
vn 0.960654 -0.164578 0.223737
vn 0.656435 -0.071625 0.750975
vn 0.093728 -0.082558 0.992169
vn 0.079794 -0.069669 0.994374
vn 0.652280 -0.080501 0.753691
vn 0.928230 0.037984 -0.370063
vn 0.537639 0.097720 -0.837493
vn -0.642942 0.114272 -0.757342
vn -0.516230 -0.055572 0.854645
vn 0.971267 -0.027053 0.236452
vn -0.060786 0.127032 -0.990034
vn 0.522354 0.060344 -0.850591
vn 0.921514 -0.005604 -0.388304
vn 0.928663 -0.071110 -0.364046
vn 0.546697 -0.000482 -0.837330
vn -0.643477 0.138281 -0.752871
vn -0.966662 0.120254 -0.226063
vn -0.501656 -0.017917 0.864881
vn 0.975014 -0.056953 0.214718
vn -0.077261 0.115381 -0.990312
vn -0.910236 0.059043 0.409859
vn -0.637872 0.125401 -0.759864
vn -0.970249 0.126254 -0.206583
vn -0.465620 -0.043640 0.883908
vn 0.110379 -0.110589 0.987718
vn 0.967806 -0.115833 0.223460
vn -0.055248 0.074666 -0.995677
vn -0.890793 0.055613 0.450993
vn 0.658786 -0.131487 0.740751
s 1
g body
usemtl CylinderFBXASC046001SG
f 5/29/1 6/16/2 16/1/3 15/14/4
f 12/41/5 13/84/6 23/66/7 22/85/8
f 2/60/9 3/3/10 13/84/6 12/41/5
f 9/26/11 10/11/12 20/58/13 19/76/14
f 6/16/2 7/95/15 17/45/16 16/1/3
f 3/3/10 4/87/17 14/73/18 13/84/6
f 10/12/12 1/77/19 11/57/20 20/59/13
f 7/96/15 8/82/21 18/28/22 17/44/16
f 4/87/17 5/30/1 15/15/4 14/73/18
f 1/77/19 2/61/9 12/42/5 11/57/20
f 8/82/21 9/26/11 19/76/14 18/28/22
f 26/80/23 27/23/24 37/69/25 36/25/26
f 19/76/14 20/58/13 30/36/27 29/53/28
f 16/1/3 17/45/16 27/23/24 26/80/23
f 13/84/6 14/73/18 24/52/29 23/66/7
f 20/59/13 11/57/20 21/2/30 30/37/27
f 17/44/16 18/28/22 28/8/31 27/24/24
f 14/73/18 15/15/4 25/92/32 24/52/29
f 11/57/20 12/42/5 22/86/8 21/2/30
f 18/28/22 19/76/14 29/53/28 28/8/31
f 15/14/4 16/1/3 26/80/23 25/93/32
f 33/9/33 34/94/34 44/78/35 43/89/36
f 23/66/7 24/52/29 34/94/34 33/9/33
f 30/37/27 21/2/30 31/81/37 40/18/38
f 27/24/24 28/8/31 38/54/39 37/70/25
f 24/52/29 25/92/32 35/38/40 34/94/34
f 21/2/30 22/86/8 32/67/41 31/81/37
f 28/8/31 29/53/28 39/33/42 38/54/39
f 25/93/32 26/80/23 36/25/26 35/39/40
f 22/85/8 23/66/7 33/9/33 32/68/41
f 29/53/28 30/36/27 40/19/38 39/33/42
f 50/64/43 41/63/44 51/7/45 60/46/46
f 40/18/38 31/81/37 41/63/44 50/64/43
f 37/70/25 38/54/39 48/34/47 47/50/48
f 34/94/34 35/38/40 45/20/49 44/78/35
f 31/81/37 32/67/41 42/48/50 41/63/44
f 38/54/39 39/33/42 49/79/51 48/34/47
f 35/39/40 36/25/26 46/6/52 45/21/49
f 32/68/41 33/9/33 43/89/36 42/49/50
f 39/33/42 40/19/38 50/65/43 49/79/51
f 36/25/26 37/69/25 47/51/48 46/6/52
f 57/31/53 58/17/54 68/43/55 67/97/56
f 47/50/48 48/34/47 58/17/54 57/31/53
f 44/78/35 45/20/49 55/4/57 54/22/58
f 41/63/44 42/48/50 52/90/59 51/7/45
f 48/34/47 49/79/51 59/62/60 58/17/54
f 45/21/49 46/6/52 56/88/61 55/5/57
f 42/49/50 43/89/36 53/35/62 52/91/59
f 49/79/51 50/65/43 60/47/46 59/62/60
f 46/6/52 47/51/48 57/32/53 56/88/61
f 43/89/36 44/78/35 54/22/58 53/35/62
f 54/22/58 55/4/57 65/71/63 64/83/64
f 51/7/45 52/90/59 62/55/65 61/10/66
f 58/17/54 59/62/60 69/27/67 68/43/55
f 55/5/57 56/88/61 66/13/68 65/72/63
f 52/91/59 53/35/62 63/40/69 62/56/65
f 59/62/60 60/47/46 70/74/70 69/27/67
f 56/88/61 57/32/53 67/98/56 66/13/68
f 53/35/62 54/22/58 64/83/64 63/40/69
f 60/46/46 51/7/45 61/10/66 70/75/70
